<svg id="Capa_1" data-name="Capa 1" xmlns="http://www.w3.org/2000/svg" viewBox="0 0 568.83 104.25">
  <defs>
    <style>
      .cls-1 {
        fill: #d4b9da;
      }

      .cls-2 {
        fill: #dfcdd9;
      }

      .cls-3 {
        fill: #dfcbd5;
      }

      .cls-4 {
        fill: #e1b9c8;
      }

      .cls-5 {
        fill: #e1cad5;
      }

      .cls-6 {
        fill: #e9dde7;
      }

      .cls-7 {
        fill: #e8dae2;
      }

      .cls-8 {
        fill: #ead8e2;
      }

      .cls-9 {
        fill: #e1d1dc;
      }

      .cls-10 {
        fill: #59444f;
      }

      .cls-11 {
        fill: #5a434f;
      }

      .cls-12 {
        fill: #e6d7e0;
      }

      .cls-13 {
        fill: #f3e5ec;
      }

      .cls-14 {
        fill: #f1e1ea;
      }

      .cls-15 {
        fill: #eac7d7;
      }

      .cls-16 {
        fill: #ebdde6;
      }

      .cls-17 {
        fill: #e8d9e1;
      }

      .cls-18 {
        fill: #e4e0e3;
      }

      .cls-19 {
        fill: #e5e2e6;
      }

      .cls-20 {
        fill: #f2e8ed;
      }

      .cls-21 {
        fill: #f3e8f0;
      }

      .cls-22 {
        fill: #eee3ec;
      }

      .cls-23 {
        fill: #ebe4eb;
      }

      .cls-24 {
        fill: #a4939d;
      }

      .cls-25 {
        fill: #e8dee6;
      }

      .cls-26 {
        fill: #e8dde5;
      }

      .cls-27 {
        fill: #f0e4ec;
      }

      .cls-28 {
        fill: #e9dfe5;
      }

      .cls-29 {
        fill: #ead4e1;
      }

      .cls-30 {
        fill: #a49aa2;
      }

      .cls-31 {
        fill: #ebe5e9;
      }

      .cls-32 {
        fill: #f3e9f1;
      }

      .cls-33 {
        fill: #f3e9ef;
      }

      .cls-34 {
        fill: #ecd5df;
      }

      .cls-35 {
        fill: #e7c7d5;
      }

      .cls-36 {
        fill: #ebc9d6;
      }

      .cls-37 {
        fill: #e7d9e2;
      }

      .cls-38 {
        fill: #e4c3cf;
      }

      .cls-39 {
        fill: #e5bcca;
      }

      .cls-40 {
        fill: #ecd8e2;
      }

      .cls-41 {
        fill: #902f4f;
      }

      .cls-42 {
        fill: #e8d4df;
      }

      .cls-43 {
        fill: #ded2da;
      }

      .cls-44 {
        fill: #e4d2de;
      }

      .cls-45 {
        fill: #f1e6ed;
      }

      .cls-46 {
        fill: #e9dce3;
      }

      .cls-47 {
        fill: #ebdbe2;
      }

      .cls-48 {
        fill: #e4d8dd;
      }

      .cls-49 {
        fill: #ebdde5;
      }

      .cls-50 {
        fill: #e6bbcd;
      }

      .cls-51 {
        fill: #ead2de;
      }

      .cls-52 {
        fill: #eddfe8;
      }

      .cls-53 {
        fill: #ebdfe5;
      }

      .cls-54 {
        fill: #e9d9e4;
      }

      .cls-55 {
        fill: #e7d7e0;
      }

      .cls-56 {
        fill: #e4cdda;
      }

      .cls-57 {
        fill: #e1c9d7;
      }

      .cls-58 {
        fill: #ebd5e0;
      }

      .cls-59 {
        fill: #e7d8df;
      }

      .cls-60 {
        fill: #dfa0b9;
      }

      .cls-61 {
        fill: #f7dee9;
      }

      .cls-62 {
        fill: #923653;
      }

      .cls-63 {
        fill: #f3e8ee;
      }

      .cls-64 {
        fill: #eee3ed;
      }

      .cls-65 {
        fill: #f3e9f0;
      }

      .cls-66 {
        fill: #ece7eb;
      }

      .cls-67 {
        fill: #ebdfe7;
      }

      .cls-68 {
        fill: #d5a6b7;
      }

      .cls-69 {
        fill: #dfd5d9;
      }

      .cls-70 {
        fill: #ebdbe6;
      }

      .cls-71 {
        fill: #e5cddc;
      }

      .cls-72 {
        fill: #dac9d5;
      }

      .cls-73 {
        fill: #f3e8f1;
      }

      .cls-74 {
        fill: #eee2eb;
      }

      .cls-75 {
        fill: #f4e7f0;
      }

      .cls-76 {
        fill: #e9dee7;
      }

      .cls-77 {
        fill: #e5dbe3;
      }

      .cls-78 {
        fill: #efe3eb;
      }

      .cls-79 {
        fill: #ebdee7;
      }

      .cls-80 {
        fill: #e9dde3;
      }

      .cls-81 {
        fill: #e8dce2;
      }

      .cls-82 {
        fill: #f4e9f1;
      }

      .cls-83 {
        fill: #e9dfe6;
      }

      .cls-84 {
        fill: #e8e2e8;
      }

      .cls-85 {
        fill: #f5e9f3;
      }

      .cls-86 {
        fill: #eadfe7;
      }

      .cls-87 {
        fill: #f6e9f2;
      }

      .cls-88 {
        fill: #eee1eb;
      }

      .cls-89 {
        fill: #f3e7f0;
      }

      .cls-90 {
        fill: #edebef;
      }

      .cls-91 {
        fill: #f0e5ec;
      }

      .cls-92 {
        fill: #e2d5de;
      }

      .cls-93 {
        fill: #f5e8f1;
      }

      .cls-94 {
        fill: #efe4ed;
      }

      .cls-95 {
        fill: #d6c6d1;
      }

      .cls-96 {
        fill: #d4bdca;
      }

      .cls-97 {
        fill: #e8dfe7;
      }

      .cls-98 {
        fill: #d9205a;
      }
    </style>
  </defs>
  <title>Mesa de trabajo 1</title>
  <g>
    <path class="cls-1" d="M55.52,35.55c0,.35-5.45,32.23-3.8,48.6.12,1.84-2.29,3.33-5.58,3.47h-.26c-3.17,0-5.7-1.35-5.83-3.12-1.77-16.86,3.68-48.24,3.81-49.59.38-1.77,3.29-3.12,6.46-2.91S55.9,33.78,55.52,35.55ZM44.2,21.94a5.3,5.3,0,0,1,3.61-5,8,8,0,0,1,2.06-.28,6.24,6.24,0,0,1,2.83.57,5.13,5.13,0,0,1,2.83,5.38,5.6,5.6,0,0,1-5.66,5.24h-.15A5.71,5.71,0,0,1,44.2,21.94Z"/>
    <path class="cls-1" d="M521.24,65.19c0-.36,5.45-32.24,3.81-48.6-.13-1.85,2.28-3.33,5.57-3.48h.26c3.17,0,5.7,1.35,5.83,3.12,1.78,16.86-3.68,48.25-3.8,49.59-.38,1.77-3.3,3.12-6.47,2.91S520.86,67,521.24,65.19Zm11.32,13.6a5.28,5.28,0,0,1-3.61,5,8,8,0,0,1-2.05.28,6.39,6.39,0,0,1-2.84-.56,5.17,5.17,0,0,1-2.83-5.39,5.6,5.6,0,0,1,5.67-5.24H527A5.71,5.71,0,0,1,532.56,78.79Z"/>
    <path class="cls-1" d="M190.53,15.66a5,5,0,0,1,1.27,3.55c0,.14-1.06,36.84-1.27,42.36v.07c0,1.35-.07,2.77-.07,4.25-.14,3.47-.28,7.44-.07,10.63a4.66,4.66,0,0,1-1.14,3.54,5.08,5.08,0,0,1-3.4,1.7h-.35a4.93,4.93,0,0,1-4.89-4.53,107.24,107.24,0,0,1,0-11.62l.07-.28c0-1.63.07-3.19.07-4.54-1.34-.07-3.33-.21-6.3-.21-2.62,0-5.74.07-9.21.21-1.56.07-3.05.14-4.32.29.07,8.14,0,14.52-.15,15.94a5,5,0,0,1-5.24,4.53A4.9,4.9,0,0,1,151,76.31c.07-.78.14-7,.14-15.8a4.53,4.53,0,0,1-1.21-2,4.79,4.79,0,0,1,1.14-4.82c-.14-12-.57-27.77-1.7-37.27a4.93,4.93,0,0,1,4.25-5.52h.57a4.9,4.9,0,0,1,4.88,4.32c1.14,9.42,1.63,24.37,1.77,36l3.9-.21a149.23,149.23,0,0,1,16.37,0c.35-12.69.92-31.81.92-32.1a4.8,4.8,0,0,1,5.17-4.74A5.14,5.14,0,0,1,190.53,15.66Z"/>
    <path class="cls-1" d="M199.31,72a4.48,4.48,0,0,1,3-4.25,5.18,5.18,0,0,1,1.7-.29,5.1,5.1,0,0,1,2.34.5,4.36,4.36,0,0,1,2.34,4.53A4.68,4.68,0,0,1,204,76.87h-.14A4.66,4.66,0,0,1,199.31,72Z"/>
    <path class="cls-1" d="M216,72a4.48,4.48,0,0,1,3-4.25,5.46,5.46,0,0,1,4,.21,4.35,4.35,0,0,1,2.33,4.53,4.67,4.67,0,0,1-4.67,4.39h-.14A4.66,4.66,0,0,1,216,72Z"/>
    <path class="cls-1" d="M232.61,72a4.47,4.47,0,0,1,3-4.25,5.44,5.44,0,0,1,4,.21A4.36,4.36,0,0,1,242,72.48a4.67,4.67,0,0,1-4.67,4.39h-.15A4.66,4.66,0,0,1,232.61,72Z"/>
    <path class="cls-1" d="M288.08,31.53a15.42,15.42,0,0,1-3.61,11.91,24,24,0,0,1-9.14,6.44l6.38,23.67a4.79,4.79,0,0,1-.5,3.68,4.93,4.93,0,0,1-2.9,2.27,4.87,4.87,0,0,1-6-3.4l-6.3-23.24a62.15,62.15,0,0,1-7.51,1.34c-.07,19.42.14,22.82.28,23.38a4.79,4.79,0,0,1-.92,3.62,4.55,4.55,0,0,1-3.12,1.91,2.87,2.87,0,0,1-.77.07,4.74,4.74,0,0,1-4.75-4.11c-.14-.92-.57-3.4-.36-28.69a.8.8,0,0,1-.07-.36,3.82,3.82,0,0,1,.07-.92v-.35c.07-12.9-.07-30.25-.07-30.39a5.59,5.59,0,0,1,.36-1.92c.07-.21.21-.35.28-.56l.14-.22c.14-.14.21-.28.36-.42s.14-.21.21-.36.28-.21.35-.21a1,1,0,0,1,.43-.35,1.5,1.5,0,0,1,.57-.36l.35-.14a2.07,2.07,0,0,1,.71-.28h.07c11.76-2.41,21-1.21,27.42,3.68A20.74,20.74,0,0,1,288.08,31.53Zm-29.47,12.9c7.16-1,15.23-3.33,18.49-7.23a6,6,0,0,0,1.35-4.75,11.24,11.24,0,0,0-4.32-7.58c-3.41-2.55-8.65-3.4-15.59-2.48C258.54,26.43,258.61,35.64,258.61,44.43Z"/>
    <path class="cls-1" d="M340.37,55.9c3,15.45-5.74,22.82-10.77,24.52a27.83,27.83,0,0,1-8.36,1.34,20.59,20.59,0,0,1-12.19-3.82c-13.32-9.5-14.59-33.44-14.81-36.13-.77-8.22,1.14-15.17,6-20.55,9.21-10.2,25.36-10.34,26-10.34a5.08,5.08,0,0,1,5.1,5.1,5.13,5.13,0,0,1-5.1,5.1c-.07,0-12.33.14-18.42,6.94-2.84,3.19-4,7.51-3.4,12.9v.35c.21,5.95,2.62,22.6,10.55,28.34,3.12,2.19,6.8,2.55,11.55,1.06.35-.07,4.32-1.84,4.32-8.71H330a5.13,5.13,0,0,1-5.1-5.1,5.08,5.08,0,0,1,5.1-5.1h5.32A5.09,5.09,0,0,1,340.37,55.9Z"/>
    <path class="cls-1" d="M394,74.32a5.1,5.1,0,0,1-3.12,6.59,4.78,4.78,0,0,1-1.77.36,5.12,5.12,0,0,1-4.82-3.4c-1.06-3-3.19-10.42-5.81-19.77l-1.7-6.23c-3.83.07-8.08.07-11.55,0-1.84,8.07-3.75,16.79-5.52,25.29a5.35,5.35,0,0,1-6.17,4,5.13,5.13,0,0,1-4-6.1c1.92-9.35,3.76-17.64,5.32-24.65a5.25,5.25,0,0,1-1.56-3.9,5,5,0,0,1,3.61-4.82c7-29.68,9.14-31.1,13-31.24h.64c4.39,0,5.81,2.13,13.95,30.75a5.16,5.16,0,0,1,5.25,4.53,5,5,0,0,1-1,3.83,4.53,4.53,0,0,1-1.56,1.27l1.21,4.33C391,64.05,393.07,71.7,394,74.32ZM370.47,30.26c-.77,3.19-1.77,7-2.76,11.26,2,.07,4.11.07,6.17.07C372.6,37.13,371.47,33.38,370.47,30.26Z"/>
    <path class="cls-1" d="M438.35,64.41c-.78,13.32-16.09,18.06-30,18.06h-.07a4.8,4.8,0,0,1-4.89-4.89,4.9,4.9,0,0,1,4.89-4.89c.85,0,19.83-.07,20.4-8.92.14-2.2-4.11-4.82-6.09-5.53-19-6.66-22.39-16.43-23-18.35-2.19-7-1.77-13.1,1.49-18.13,5.67-8.72,17.64-10.06,18.14-10.13A4.9,4.9,0,0,1,424.53,16a4.84,4.84,0,0,1-4.32,5.31c-.07,0-7.94,1-11,5.74-1.56,2.48-1.7,5.81-.36,10,.07.14.07.21.14.35.22.57,3,6.88,16.87,11.69C426.51,49.32,439,54.2,438.35,64.41Z"/>
    <path class="cls-1" d="M501.61,15.31c.07.57,4.54,52.78,3.47,62.13a4.83,4.83,0,0,1-4.82,4.32h-.56a4.94,4.94,0,0,1-4.25-5.38c.56-5-.92-27.7-2.55-49-4.82,5.67-10.91,13-15.24,18.21a4.83,4.83,0,0,1-7.36.14L455.14,28.56c-.86,11.55-1.78,30.82-2.27,46.54a4.84,4.84,0,0,1-5.1,4.61,5.13,5.13,0,0,1-3.33-1.49,4.93,4.93,0,0,1-1.28-3.47c2.13-60.08,3.33-60.57,6.95-61.85a5.23,5.23,0,0,1,5.38,1.42l18.35,20.83c6-7.3,17.21-20.69,19.69-23a4.85,4.85,0,0,1,8.08,3.12Z"/>
    <g>
      <g>
        <path class="cls-2" d="M122.05,79.37l-.71.37c-.29.27-.75.17-1,.45a.86.86,0,0,1-1-.2,2.26,2.26,0,0,1,2.65-.75Z"/>
        <path class="cls-3" d="M120.42,78.38a4.94,4.94,0,0,1,2.71.64,1.52,1.52,0,0,1-1.08.35l0-.07a1.7,1.7,0,0,0,0-.22C121.49,78.77,120.74,79.06,120.42,78.38Z"/>
        <path class="cls-4" d="M105.42,80.51l-.56-.16a.24.24,0,0,1,.1-.28,3.44,3.44,0,0,1,2.5.25.63.63,0,0,1,.16.27c-.33.58-.76-.07-1.12.09Z"/>
        <path class="cls-4" d="M112.61,80.84a1.41,1.41,0,0,0-1.14,0,.69.69,0,0,1-.61,0,1.37,1.37,0,0,0-.85,0,5.5,5.5,0,0,1-2.21-.12l-.19-.12-.06-.11a.27.27,0,0,1,.14-.24,1,1,0,0,1,.44-.08c.87-.09,1.74.11,2.61,0a1.51,1.51,0,0,1,.3,0c.61,0,1.22-.24,1.83,0a.62.62,0,0,1,.46.41Z"/>
        <path class="cls-5" d="M117.31,80.31a1.09,1.09,0,0,1-.08.15,7.72,7.72,0,0,0-1.79.18,4.45,4.45,0,0,1-1.74-.16v-.13a.53.53,0,0,1,.42-.3,5.82,5.82,0,0,0,1.18,0,.82.82,0,0,1,.27,0C116.16,80.08,116.83,79.61,117.31,80.31Z"/>
        <path class="cls-5" d="M113.33,80.64l-.6-.18c0-.18.14-.26.31-.3a.62.62,0,0,1,.66.32h0A.36.36,0,0,1,113.33,80.64Z"/>
        <path class="cls-6" d="M100.73,73.86l.32-.44a1.54,1.54,0,0,1,1.56-.51,14.64,14.64,0,0,1,3.25.77,10,10,0,0,0,3,.64,3.54,3.54,0,0,1,2.16.59,3.67,3.67,0,0,1,2.63,1.61.44.44,0,0,1,0,.43c0,.23.2.49-.15.63a11.22,11.22,0,0,0-1.42-.16c-1.06-.33-2.18-.43-3.22-.83-1.08-.55-2.32-.64-3.38-1.24-1.17-.32-2.3-.88-3.58-.62-.19,0-.48,0-.53-.12-.14-.44-.5-.27-.77-.37A.4.4,0,0,1,100.73,73.86Z"/>
        <path class="cls-7" d="M100.14,74.79l.4-.9a.58.58,0,0,1,.19,0l-.06.45a.61.61,0,0,1,.15.53c-.46,1.1,0,2.22-.11,3.33-.16.21-.39.15-.6.17s-.61-.27-.25.26c.18.27,0,.38-.27.44-1-.25-2.12-.09-2.94-.91a.67.67,0,0,1,.3-.83c.64-.21,1-.83,1.62-1.11s.45-1.06.37-1.68a2.55,2.55,0,0,0-.19-.72c-.07-.37-.35-.56-.6-.79s-.54-.33-.45-.72a.3.3,0,0,1,.24-.07,2.34,2.34,0,0,1,1.63,2.64c0,.1.1.2.14.31s0,.12.08.1,0,0,0-.09S100,74.9,100.14,74.79Z"/>
        <path class="cls-8" d="M97.94,72.21l-.2.1c-.53.38-1.11.18-1.67.1-2.35-.34-4.64-.92-7-1.42-.76-.16-1.42-.32-1.77.69-.19.56-.73.54-1.22.27s-.52.53-.94.44a.27.27,0,0,1-.15-.22,2.52,2.52,0,0,1,.61-1.32A2.23,2.23,0,0,1,87,69.94a45.59,45.59,0,0,1,6.46,1.29A22.72,22.72,0,0,1,97.94,72.21Z"/>
        <path class="cls-9" d="M83.84,69.87l.37.42-.13.11a7.05,7.05,0,0,1-2.54-.29,48.58,48.58,0,0,1-5.29-1.3.52.52,0,0,1-.41-.36c.21-.48.59-.39,1-.31l2.61.56c1.17.26,2.34.5,3.51.77C83.25,69.54,83.63,69.53,83.84,69.87Z"/>
        <path class="cls-2" d="M120.42,78.38l2,.46s.07,0,.08,0-.07.12-.14.14a5.57,5.57,0,0,1-2.19-.08c-1.71-.37-3.41-.79-5.15-1l-.1-.14.54-.44c.17-.18.35-.26.57-.09Z"/>
        <path class="cls-2" d="M113.56,77.51c.09-.18-.11-.4.09-.56.23.23.19.55.28.83a4.25,4.25,0,0,0,.06.94,2.78,2.78,0,0,0,0,.76.61.61,0,0,1,.23-.27c.37-.41,0-1.21.71-1.43l.06.09a2.84,2.84,0,0,1-.78,2.33l-.46.28-.74-.14a15.43,15.43,0,0,0,.42-2.61A.55.55,0,0,1,113.56,77.51Z"/>
        <path class="cls-9" d="M84.21,70.29c.77.39.29,1.19.56,1.74a1,1,0,0,1,.16.57,2.25,2.25,0,0,0,0,1.31.76.76,0,0,1-.3.7.66.66,0,0,1-.69-.34c0-1.31.15-2.61.17-3.92Z"/>
        <path class="cls-10" d="M84.65,72.6l.12-.57c.45-.28.29-1,.87-1.18a5.86,5.86,0,0,0-.5,1.46.35.35,0,0,1-.09.41A.33.33,0,0,1,84.65,72.6Z"/>
        <path class="cls-11" d="M114.06,78.81l-.19,0a1.82,1.82,0,0,1,.06-1A2,2,0,0,1,114.06,78.81Z"/>
        <path class="cls-12" d="M82.26,73.72l-.52-.2-.92-.74c.18-.2.4-.16.62-.13s.6.31.67-.19c0-.35,0-.72-.38-.88a5.46,5.46,0,0,0-1.68-.38A13.25,13.25,0,0,0,77.88,71c-.73-.21-1.13-1-1.92-1.09-.37-.15-.88-.16-.85-.76l.1-.36.61-.31c1.52-.13,2.82.7,4.26,1a16.66,16.66,0,0,1,4.06.89c.68,1.31.22,2.6,0,3.9-.6.18-1-.2-1.47-.48Z"/>
        <path class="cls-13" d="M77.88,71c0-.24,0-.46.38-.39a33.18,33.18,0,0,1,3.57.58,1.66,1.66,0,0,1,.54,2.07c-.18.17-.36.08-.51,0a1.68,1.68,0,0,0-1-.44A18.65,18.65,0,0,1,77.88,71Z"/>
        <path class="cls-14" d="M114.16,80.2a11.2,11.2,0,0,1,.78-2.33,3.72,3.72,0,0,1,2.24,0c1.69.45,3.42.77,5.14,1.14l-.3.28a6.86,6.86,0,0,0-2.67.66,6.77,6.77,0,0,1-2,.35c-.65-.26-1.32.12-2,0,0-.64.63-.48,1-.72-.23-.24-.5-.46-.79-.3s-.26.65-.25,1A1.17,1.17,0,0,1,114.16,80.2Z"/>
        <path class="cls-15" d="M82.63,73.77a3.5,3.5,0,0,1,1.47.48l.53.31a1.49,1.49,0,0,1,1.1.25,54.31,54.31,0,0,0,11.84,3.86,27.27,27.27,0,0,0,4.49.81c1,.16,2-.06,2.85.7l0,.17-2.34-.15-.76-.09a4.13,4.13,0,0,0-1.6-.21l-5.59-1.19-.71-.19c-2.11-.81-4.3-1.38-6.37-2.31-.37-.17-.76-.31-1.15-.46a.33.33,0,0,1-.5-.16,7,7,0,0,0-2.72-1.19h0C83.08,74.09,82.5,74.2,82.63,73.77Z"/>
        <path class="cls-16" d="M104.91,80.18a16.32,16.32,0,0,1-2.87-.44c-.19.1-.36,0-.54,0,.25-.72-.56-.08-.58-.45-.21-.37-.88-.45-.71-1.08.16-.14.26,0,.38.08.42-.16.78.11,1.16.19.21.07.41.24.64.19,1.58-.31,3.1.32,4.66.34.84.18,1.76.14,2.42.83.4.29,1,.11,1.29.66a15,15,0,0,1-2.76,0,.72.72,0,0,0-.21-.18,2.75,2.75,0,0,0-.61-.16c.18,0,.37.08.45.3a.32.32,0,0,1-.08.12Z"/>
        <path class="cls-17" d="M113.53,77.7c0,.93.38,1.92-.57,2.64l-.23.12-1.78,0a.21.21,0,0,1,0-.25c.16-.13.29-.25,0-.42a4.88,4.88,0,0,0,1.2-1.36A6.06,6.06,0,0,0,113.53,77.7Z"/>
        <path class="cls-18" d="M111.07,79.92c.56.32-.15.36-.12.57l-.19,0-1.51-.33c-.11-.22,0-.38.18-.5A1.37,1.37,0,0,1,111.07,79.92Z"/>
        <path class="cls-19" d="M107.63,80.37,105.94,80l.09-.3c.68.16,1.48-.1,2,.71Z"/>
        <path class="cls-20" d="M106.89,79.21a4.2,4.2,0,0,1-2.06-.13,4.12,4.12,0,0,0-2.48,0c-.32.12-.52-.16-.67-.41-.41-.36-.77-.74-.5-1.34a3.85,3.85,0,0,0,.67-1.45c.18-.94.68-1.25,1.64-1.15.65.07,1.27.45,2,.23l3.45,1.34a7.27,7.27,0,0,0-2.19,1.2c.52.38,1.33.57,1.14,1.44C107.72,79.54,107.18,79,106.89,79.21Z"/>
        <path class="cls-21" d="M106.89,79.21c.17-.28.81.16.75-.47,0-.46-.37-.63-.78-.72s-.77,0-.75-.56.41-.46.77-.46c.14,0,.39-.08.41-.17.27-1,1-.65,1.61-.53a15,15,0,0,1,3.54,1,1.18,1.18,0,0,1-.21,1.32,1.85,1.85,0,0,1-1.72.84c-.35,0-.65.25-1,.35l-.28.34C108.65,79.33,107.69,79.48,106.89,79.21Z"/>
        <path class="cls-22" d="M105.45,75c-.38.43-.83.2-1.25.12-1.45-.29-1.56-.2-2.07,1.17a1.79,1.79,0,0,1-.77,1.17c-.38-.82-.32-1.77-.83-2.55,0-.18.09-.37.14-.56.33-.26.46-.81,1.13-.71-.13.27-.65.37-.43.72s.56.11.84,0a.87.87,0,0,1,.84,0A10,10,0,0,0,105.45,75Z"/>
        <path class="cls-23" d="M112.15,78.58c.07-.44,0-.92.29-1.31.5-.49.76.08,1.12.24l0,.19c0,.83-.58.88-1.19.92C112.26,78.69,112.2,78.68,112.15,78.58Z"/>
        <path class="cls-24" d="M100,75.34a1.32,1.32,0,0,1-.36.9,1.48,1.48,0,0,1-.09-1.39l.14.07A1.43,1.43,0,0,1,100,75.34Z"/>
        <path class="cls-25" d="M85.52,75a1.59,1.59,0,0,1-.89-.41c.05-.26.09-.53.14-.79A1.07,1.07,0,0,1,85,72.64l.13-.33.16,0c.13-.1.25-.3.43-.07s-.09.6-.17.89c.08-.29.27-.57.17-.89s.13-.66.19-1c.14.13.28.25.41.39.4.4.74.33.78-.22.08-1.07.65-1.16,1.52-1,2.56.57,5.12,1.12,7.69,1.62a11.52,11.52,0,0,1,1.42.19c.38.51,1.34.52,1.26,1.44a.86.86,0,0,1-1.07.41c-1.43-.6-3-.68-4.44-1.14a7.35,7.35,0,0,0-2.7-.43,9.73,9.73,0,0,0-2-.25c-1.59.1-2,.35-2.39,1.92a1.36,1.36,0,0,1-.18.43C86.06,74.9,85.64,74.55,85.52,75Z"/>
        <path class="cls-26" d="M85.52,75a1.05,1.05,0,0,1,.14-1c.39.11.07.71.51.76.6-.41,1.16-.11,1.7.15a15.66,15.66,0,0,0,1.68.87c.66.54,1.54.34,2.26.69a17,17,0,0,0,3.83,1c.39.1.82.11,1.06.52,1,.61,2.11.57,3.16.89.46-.29.8-.05,1.13.24.75.17.75.17.48.5a18.91,18.91,0,0,1-2.88-.52,2.62,2.62,0,0,0-1.11-.15A46,46,0,0,1,87.65,76C86.92,75.71,86.23,75.32,85.52,75Z"/>
        <path class="cls-27" d="M96.7,78l-4.11-.89c-.33-.08-.71-.07-.94-.4.66-.41,1.36-.14,2-.09s1.18.24,1.78.33c1.18.18,1.48-.09,1.41-1.31a2.18,2.18,0,0,1,0-.57c.26-.69,0-1-.7-1.13-1.48-.29-2.93-.7-4.41-1-.43-.09-.91-.12-1.14-.6a5.65,5.65,0,0,1,2.5.27c1.28.43,2.65.63,4,1,.63.15,1.21.63,1.89.21.09.21.31.37.25.64-.37.19-.22.57-.31.85-.14.47-.27.92-.78,1.13s-.46.9-1,1.13A.63.63,0,0,0,96.7,78Z"/>
        <path class="cls-28" d="M100.53,74.87c.85.51,1.1,1.27.83,2.55-.17.49.3.81.32,1.25a2.08,2.08,0,0,1-1.09-.43A5.47,5.47,0,0,1,100.53,74.87Z"/>
        <path class="cls-25" d="M97.2,77.5a3.11,3.11,0,0,1,1-1.45c.35-.22.35-.64.42-1s.06-.75.6-.65a4.57,4.57,0,0,1-.16,1.69c-.11.39-.08.81-.77.61C97.79,76.54,97.8,77.52,97.2,77.5Z"/>
        <path class="cls-29" d="M101,79.11l-1.13-.24c-.12-.44-1.11-.18-.81-.8s.75.17,1.16.09C100.34,78.59,101,78.56,101,79.11Z"/>
        <path class="cls-26" d="M85.92,71.3a.81.81,0,0,1-.2.94h0l-.42.11A1.89,1.89,0,0,1,85.92,71.3Z"/>
        <path class="cls-30" d="M85,72.64l-.24,1.13c-.57-.34-.15-.77-.12-1.17Z"/>
        <path class="cls-31" d="M115.33,80.26a.87.87,0,0,1-.09-1.39c.37-.38,1.29.13,1.8,1-.54.27-1.24-.1-1.7.42Z"/>
        <path class="cls-29" d="M97.48,78.94c1.39-.12,2.65.5,4,.67l.57.13c-1.17.16-2.23-.39-3.35-.54C98.28,79.14,97.88,79,97.48,78.94Z"/>
        <path class="cls-16" d="M112.15,78.58l.19,0c-.35.29-.25.68-.19,1.06-.38.07-.81-.16-1.08.24a7.24,7.24,0,0,0-1.54-.14c.42-.43.8-.89,1.54-.68C111.5,79.22,111.73,78.63,112.15,78.58Z"/>
        <path class="cls-32" d="M90.63,72.32l5.57,1.22a4.72,4.72,0,0,1,.65.15c.85.31.91.66.28,1.43a1.47,1.47,0,0,1-1.21.11c-.78-.16-1.57-.31-2.35-.52a2,2,0,0,0-2.72,1.09c-.38.61-.89.46-1.41.21-1.18-.22-2-1.31-3.27-1.3-.33-1.22.57-1.91,1.17-2.71.17-.21.49-.09.73,0a2,2,0,0,0,1.39,0C90,71.64,90.17,72.41,90.63,72.32Z"/>
        <path class="cls-26" d="M85.72,72.24c.22.51,0,.91-.38,1.39-.08-.61.41-.93.38-1.39Z"/>
        <path class="cls-33" d="M89.44,76c.62.07,1.24.18,1.17-.8a.58.58,0,0,1,.44-.57c.41-.13.87-.13,1.1-.63.08-.17.36-.11.54,0a27,27,0,0,0,4.44,1.14c0,.12,0,.25.07.37.42,1.39-.2,2.16-1.6,1.84s-2.64-.39-3.95-.64C90.92,76.43,90.08,76.56,89.44,76Z"/>
      </g>
      <g>
        <path class="cls-34" d="M119.4,29l.13.27a.6.6,0,0,0-.08.08.67.67,0,0,1-.64-.07,3.81,3.81,0,0,0-.71-.56,2.4,2.4,0,0,0-.26-.18,5.87,5.87,0,0,0-1.15-.57c-.38-.14-.7-.36-.49-.86.2-.14.3.12.46.14s.21,0,.25.15l1.58.94c.13.1.31.11.38.28Z"/>
        <path class="cls-35" d="M131.14,42.14l-.21.14c-.43-.44-.6-1-1-1.51s-.56-.72-.84-1.09-.66-.48-.1-.83c.12,0,.21,0,.23.17l.08.14a7.92,7.92,0,0,1,1.77,2.44Z"/>
        <path class="cls-36" d="M121.56,30.63a3.81,3.81,0,0,0,.91.79c.13.15.26.29.07.47-.72-.09-1-.79-1.52-1.13a.44.44,0,0,1,0-.32l.07-.09Z"/>
        <path class="cls-36" d="M119.53,29.27a3.08,3.08,0,0,1,1.53,1.08l0,0a.43.43,0,0,1-.41,0,8,8,0,0,1-1-.75.34.34,0,0,1-.14-.37Z"/>
        <path class="cls-37" d="M130.75,42.41l-.3.11a2.46,2.46,0,0,0-.81.29h0a2.72,2.72,0,0,1-1.1.16,10,10,0,0,0-2.27-.86,1.41,1.41,0,0,1-.77-.38c-.23-.21-.4-.45-.06-.72a3,3,0,0,1,1.48.23,4.26,4.26,0,0,0,2.24,0c.21.07.51.38.49-.19.06-.22.17-.41.44-.42a3,3,0,0,1,.83,1.63Z"/>
        <path class="cls-38" d="M115,26.55c.2.21.54.16.72.41a.83.83,0,0,1-1,0,5.55,5.55,0,0,0-1.16-.36,4.1,4.1,0,0,1-.5-.14,9.21,9.21,0,0,0-2.19-.59l-.62-.14c-.33-.1-.68-.09-1-.21-1-.14-2-.36-3-.58-.2-.05-.43,0-.59-.21a.2.2,0,0,1,0-.25c.71-.11,1.35.29,2,.26a12,12,0,0,0,2.58.48,6.06,6.06,0,0,0,1.67.44Z"/>
        <path class="cls-39" d="M105.68,24.47l0,.16c-.36.31-.77,0-1.14.08a5.1,5.1,0,0,1-.67-.08c-.49.05-1-.16-1.47-.07a9,9,0,0,0-1.37,0h-.21a9.46,9.46,0,0,0-1.07.06,1.15,1.15,0,0,1-.33-.09.37.37,0,0,1-.22-.25l.54-.13c.18-.23.38-.11.58-.05a26.55,26.55,0,0,0,3,0,7.35,7.35,0,0,1,.94,0,6,6,0,0,1,.93.23Z"/>
        <path class="cls-40" d="M99.18,24.25l.32.11c.1.09.16.2,0,.3a3.23,3.23,0,0,1-2.12.24.55.55,0,0,1-.24-.26.25.25,0,0,1,0-.22l1-.19a.35.35,0,0,1,.25-.16,1.23,1.23,0,0,1,.6.1Z"/>
        <path class="cls-41" d="M105.13,24.33l-1-.15a.54.54,0,0,1-.55-.16A2.26,2.26,0,0,1,105.13,24.33Z"/>
        <path class="cls-42" d="M82.58,31.05c.29-.51.92-.62,1.28-1.07.2-.13.29-.39.54-.46l.06,0c.23.08.18.26.17.44-.11.42-.44.74-.48,1.18,0,.17.13.31.16.47a.51.51,0,0,1-.4.65.52.52,0,0,1-.67-.36c-.11-.27,0-.74-.57-.67C82.56,31.22,82.49,31.17,82.58,31.05Z"/>
        <path class="cls-43" d="M82.58,31.05l.11.18a7,7,0,0,1,.77,1.42l-.06.08-.76-.51a.16.16,0,0,1-.09-.15l-.19-.68C82.45,31.29,82.4,31.1,82.58,31.05Z"/>
        <path class="cls-44" d="M88.8,33.9l-.63.15a6,6,0,0,1-2.94-.34c-.44-.18-1,0-1.32-.57l-.51-.41,0,0a1,1,0,0,1,1.18.06c.12.13.15.2.34.21,1,.08,2,.5,3,.54C88.26,33.53,88.62,33.53,88.8,33.9Z"/>
        <path class="cls-45" d="M120.62,30.26l.39.13.12.28c.05.19.2.34.2.55a.61.61,0,0,0,.27.62,1.73,1.73,0,0,1,.53,2.16c-.23.81-.36,1.64-.56,2.45-.06.27-.07.59-.45.65-.34-.16-.33-.46-.25-.74.23-.77.21-1.58.48-2.34a1,1,0,0,0-.46-1.29c-.31-.17-.57-.43-.9-.6a2.28,2.28,0,0,1-1.33-1.92c-.1-.68-.79-.93-1-1.49,0-.32.25-.29.45-.33l.12.16c.13.26.52.26.61.58l.68.16.27.21C119.86,30,120.07,30.3,120.62,30.26Z"/>
        <path class="cls-46" d="M118.06,28.39c-.14.1-.33.15-.37.35-.57.27-1-.09-1.39-.37a1.34,1.34,0,0,1-.37-.64c.15-.18-.27-.52.18-.62l.14.07c0,.32.17.56.53.58C117.29,27.79,117.63,28.17,118.06,28.39Z"/>
        <path class="cls-46" d="M118.79,29.13c-.2-.2-.55-.24-.61-.58C118.42,28.7,118.78,28.73,118.79,29.13Z"/>
        <path class="cls-47" d="M113.59,26.37l2.13.59a.17.17,0,0,1,.11.06c-.22.47-.64.16-1,.23a1.9,1.9,0,0,1-.84-.13c-.33-.12-.74.05-1-.26C112.93,26.37,113.36,26.49,113.59,26.37Z"/>
        <path class="cls-48" d="M113.93,26.88a5.08,5.08,0,0,0,1.9.14l.28.09-.11.52c-.55.32-1-.3-1.46-.21C114.25,27.35,113.91,27.32,113.93,26.88Z"/>
        <path class="cls-49" d="M121.18,31.13l-.05-.46c.59.25.87.92,1.51,1.1.22-.08.29.11.41.21a.57.57,0,0,0,0,.13,2.18,2.18,0,0,0,.62.59h0c.22.27.51.48.72.76l.23.08c.36.32.76.61,1.11,1a6.48,6.48,0,0,0,.71.77c.11.13.2.27.3.39a30.88,30.88,0,0,1,2,2.8l.22.45c-.3.39.26.43.29.68s-.15.45-.39.21a2.16,2.16,0,0,1-.54-.77c0,.38.69.54.4,1-.15.24-.43,0-.65-.07a2.09,2.09,0,0,1-.65-.9,1,1,0,0,0-.39-.62,5.48,5.48,0,0,0-.76-1c-.39-.42-1.15-.6-.93-1.42a2.23,2.23,0,0,0-1.16-1.53,2.57,2.57,0,0,0-1.4-.5,5.67,5.67,0,0,0-.5,1.94c-.12.46-.12,1-.67,1.18a.23.23,0,0,1-.18-.12,19,19,0,0,1,.62-3.09,4.19,4.19,0,0,0,.09-.7c0-.56,0-1-.7-1.21C121.14,31.86,121.21,31.44,121.18,31.13Z"/>
        <path class="cls-50" d="M124.38,33.46a1.31,1.31,0,0,1-.72-.76A1.38,1.38,0,0,1,124.38,33.46Z"/>
        <path class="cls-50" d="M123.67,32.7a.63.63,0,0,1-.62-.59A1.27,1.27,0,0,1,123.67,32.7Z"/>
        <path class="cls-51" d="M93.56,25l.59,0a.23.23,0,0,1,0,.2,7,7,0,0,1-2,.72,2.28,2.28,0,0,1-.63.24,6.34,6.34,0,0,0-2.15,1.09,1.38,1.38,0,0,1-1.39.37.32.32,0,0,1-.1-.19c.06-.48.52-.43.8-.62l.18-.1A6.88,6.88,0,0,1,90.4,26h0a2.12,2.12,0,0,1,1.06-.52l.1,0a.24.24,0,0,0,.12,0c.61-.08,1.14-.51,1.78-.48A.09.09,0,0,0,93.56,25Z"/>
        <path class="cls-52" d="M128.2,39.79c.16,0,.31.26.45.13s-.05-.28-.15-.39a2.06,2.06,0,0,1-.48-1c.19.17.69-.21.58.49a.5.5,0,0,0,.69.54l.81,1.07a1,1,0,0,0-.27.53c-.14.13-.27.26-.49.19a3.36,3.36,0,0,1-2.62,0c-.44-.11-.89-.2-1.33-.29a.73.73,0,0,1-.74,0,.47.47,0,0,1-.27-.23c.13-.44.48-.32.77-.28.66.1,1.31.28,2,.41.88.17,1,.09.92-.79a1,1,0,0,1,0-.29A.32.32,0,0,1,128.2,39.79Z"/>
        <path class="cls-53" d="M120.62,30.26c0,.17.32.32.11.5s-.29-.1-.39-.2c-.29-.3-1-.39-.6-1.06A4,4,0,0,1,120.62,30.26Z"/>
        <path class="cls-54" d="M124.68,41l.71.16c.16.76.87.84,1.39.85.79,0,1.19.61,1.8.88a.19.19,0,0,1,0,.16.13.13,0,0,1-.13.09h0a5.69,5.69,0,0,1-4.08-.55.34.34,0,0,1-.14-.21l-.42-.35a.28.28,0,0,1,0-.2A2.36,2.36,0,0,1,124.68,41Z"/>
        <path class="cls-55" d="M119.33,42.15l0,0-.06,0a5.59,5.59,0,0,1-1.87.17h-.25c-1.31-.24-2.61-.56-3.91-.83l-1-.23a4.37,4.37,0,0,1-1.06-.4c-.18-.07-.35-.18-.27-.43a2.92,2.92,0,0,1,2.15.25c.85.29,1.73.42,2.58.65.51.14.94-.16,1.41-.18.76.18,1.58-.15,2.32.27.17.09.35-.14.53-.18s.56-.1.52.33c-.11.23-.36.29-.52.46S119.49,42.11,119.33,42.15Z"/>
        <path class="cls-55" d="M123.9,41.82l0,.16a3.1,3.1,0,0,1-1.36-1.12c-.15-.2-.28-.41-.56-.2s-.26.5-.61.32c-.38-.75.3-.69.66-.87a.75.75,0,0,1,.62.2,15.16,15.16,0,0,0,1.2,1.33Z"/>
        <path class="cls-56" d="M121.41,41l.53-.32A3.65,3.65,0,0,1,120.13,42c-.14.17-.27.07-.41,0,0-.29.29-.31.51-.38C120.6,41.36,120.89,41,121.41,41Z"/>
        <path class="cls-57" d="M128.55,43l0-.15a2,2,0,0,1,1.07,0c-.1.1-.29.12-.32.31C129.08,43,128.77,43.26,128.55,43Z"/>
        <path class="cls-57" d="M129.64,42.81a.74.74,0,0,1,.81-.29A1.24,1.24,0,0,1,129.64,42.81Z"/>
        <path class="cls-58" d="M129.34,41.37a.49.49,0,0,1,.49-.19,1,1,0,0,1,0,.28c0,.26-.14.53-.42.47S129.33,41.57,129.34,41.37Z"/>
        <path class="cls-40" d="M95,24.75l1.35-.23a.33.33,0,0,1,.3,0,.27.27,0,0,1,0,.2c-.16.17-.38.15-.58.22a2.53,2.53,0,0,1-.72.08C95.14,25,94.94,25,95,24.75Z"/>
        <path class="cls-59" d="M95,24.75l.38.17c0,.39-.31.38-.59.32a.59.59,0,0,1-.39-.39.23.23,0,0,1,0-.11c0-.06.06-.06.1,0Z"/>
        <path class="cls-60" d="M96.61,24.61l-.29-.09a1.09,1.09,0,0,1,.9-.1l0,.16-.06.07a.56.56,0,0,1-.38.07A.33.33,0,0,1,96.61,24.61Z"/>
        <path class="cls-61" d="M94.37,24.85c.14,0,.29.07.35.23a.34.34,0,0,1-.45.17.54.54,0,0,1-.15-.15l0-.17Z"/>
        <path class="cls-62" d="M97.79,24c.2.15.57-.13.68.26h-.26C98.06,24.15,97.87,24.15,97.79,24Z"/>
        <path class="cls-63" d="M104.48,24.52c.41-.15.79.09,1.18.11a26.13,26.13,0,0,1,3.72.67c.14.54-.53.35-.61.69s-.2.46-.23.71a1.06,1.06,0,0,1-.62,1,4.81,4.81,0,0,1-1.92-.31c-.68-.19-.83-.57-.53-1.21.1-.21.28-.39.27-.65s-.3-.5-.61-.6S104.59,24.83,104.48,24.52Z"/>
        <path class="cls-64" d="M113.59,26.37c-.13.22-.47.18-.54.47a4.88,4.88,0,0,1-2.45-.3c-.25-.07-.35.09-.42.29a3.27,3.27,0,0,0-.66,1.76c-.17,1.19-.47,2.35-.75,3.51-.07.3-.13.63-.52.69-.39-.31-.3-.74-.23-1.13.14-.86.36-1.7.53-2.55a1.93,1.93,0,0,0,0-1.4.69.69,0,0,1,.29-.83,6.14,6.14,0,0,0,.71-.82c.69-.36,1.32.09,1.93.07-.51-.2-1.24,0-1.78-.48.25-.27.48,0,.67-.13l.58.12c.7.36,1.53.27,2.24.63Z"/>
        <path class="cls-47" d="M110.36,25.52l-.51.15,2,.43c-.74.09-1.45-.08-2.17,0a.68.68,0,0,1-1-.22c0-.5.62-.22.73-.58Z"/>
        <path class="cls-47" d="M113.18,26.27a7.64,7.64,0,0,1-2.24-.63A8.3,8.3,0,0,1,113.18,26.27Z"/>
        <path class="cls-65" d="M94.27,25.13l.45-.05a.53.53,0,0,0,.63-.16l.63-.15c.2.05.41.22.6,0l0-.13h.14c.15,0,.32.11.45,0h0a1.19,1.19,0,0,0,1.41,0c.3-.22.74.28.89-.26l.27.05a1.26,1.26,0,0,0,1,.08c.09,0,.17.06.27,0a.29.29,0,0,1-.12-.15,3.69,3.69,0,0,1,1.48,0l.1,0c.53.19,1.17.06,1.58.6.11.15.31.06.47,0s.39-.09.48.17a2.3,2.3,0,0,1-2.26,1.63,12.69,12.69,0,0,1-1.46-.24,26.37,26.37,0,0,1,3.85.92c1,.2,1.11.36,1,1.38-.06.59.33.75.7,1,.18.11.43,0,.59.22a4.76,4.76,0,0,1-.39,2.68,1.83,1.83,0,0,0-.77,1.16,1.3,1.3,0,0,1-.42.67c-.57.61-1.18,1.19-1.81,1.75a1.65,1.65,0,0,1-1.17.43c-.71,0-1.3.44-2,.5a3.5,3.5,0,0,1-2.58-.6,1.49,1.49,0,0,0-.6-.24,17.48,17.48,0,0,1-2.13-.54,2.59,2.59,0,0,1-1.06-1c-.11-.26-.38-.35-.6-.48a1.87,1.87,0,0,1-1-2.1c0-.22.13-.46.35-.51.67-.15,1.06-.83,1.8-.87.32,0,.63-.84.55-1.3s-.47-.48-.79-.44c-.89.11-1.55-.05-1.58-1.13,0-.12-.18-.14-.27-.22a.59.59,0,0,1-.13-.18,1.5,1.5,0,0,1,.08-.89C93.16,26,93.82,25.66,94.27,25.13Z"/>
        <path class="cls-65" d="M104.48,24.52a3.8,3.8,0,0,1,1.35.46c.11.08.28.13.13.32a.63.63,0,0,1-.79,0c-.13-.2-.26-.36-.55-.32a1,1,0,0,1-.73-.16c-.12-.1-.2-.22-.1-.38Z"/>
        <path class="cls-66" d="M101,24.36c.29.1.62.06.89.29-.4.41-.74,0-1.09,0-.12.06-.26.05-.26-.1s.23-.1.33-.18Z"/>
        <path class="cls-40" d="M100.83,24.33c0,.1-.43.1-.07.28-.42.35-.74.26-1-.2A2.53,2.53,0,0,1,100.83,24.33Z"/>
        <path class="cls-63" d="M103.79,24.41l.07.28a3,3,0,0,1-1.41-.3h0A5.09,5.09,0,0,1,103.79,24.41Z"/>
        <path class="cls-67" d="M88,27.46c.45-.1.94-.07,1.29-.45.42-.14.53.08.53.43s-.16.4-.18.62c-.12.51-.71.42-1,.76A15.28,15.28,0,0,1,85,31.38c.1.24.29.15.43.15a1.3,1.3,0,0,1,.84.12c1,.81,2,.39,3.08.23a1,1,0,0,1,1,.28l.12.13c.1.13.26.13.4.18a.4.4,0,0,1,.13.13.44.44,0,0,1-.19.62.6.6,0,0,1-.19.06c-.39-.07-.64.18-.93.37a.4.4,0,0,1-.19,0,1.49,1.49,0,0,0-.69-.13,10.57,10.57,0,0,1-4.25-.91c-.29-.14-.44-.24-.31-.57s-.07-.64-.32-.88c0-.51.4-.8.56-1.21.33-.11.19-.48.36-.67a1.7,1.7,0,0,1,1-.65l.29-.27.63-.27a5.41,5.41,0,0,0,1.12-.64Z"/>
        <path class="cls-68" d="M86.75,28.24c-.21.06-.39.24-.64.15.1-.26.43-.22.58-.41.45-.18.78-.59,1.29-.69l0,.17h0A4,4,0,0,1,86.75,28.24Z"/>
        <path class="cls-69" d="M84.87,29.37c0,.3.2.74-.42.61v-.42l.29-.26C84.85,29.22,84.89,29.25,84.87,29.37Z"/>
        <path class="cls-70" d="M83.89,31.19a.52.52,0,0,1,.43.7c-.12.49.15.57.54.71a14,14,0,0,0,3.85.68c.12,0,.23,0,.35.07a.29.29,0,0,1,.14.33c-.09.16-.28.12-.4.22h0a23.16,23.16,0,0,1-3.59-.67c-.21,0-.67.16-.63-.39,0-.14-.19-.07-.3,0a1.53,1.53,0,0,1-.84-.11c-.27-.48-1-.75-.75-1.47.14-.16.39-.43.42-.05s.81.34.32.83c0,0,.21.16.36.13s.41-.1.35-.36A3,3,0,0,0,83.89,31.19Z"/>
        <path class="cls-71" d="M92.39,35.84A7.75,7.75,0,0,1,91,34.07a.14.14,0,0,1,0-.18.65.65,0,0,1,.68.31c.5.59,1,1.21,1.43,1.84a.24.24,0,0,1-.12.17C92.69,36.29,92.56,36,92.39,35.84Z"/>
        <path class="cls-72" d="M88.8,33.9a.53.53,0,0,1,.34-.24.34.34,0,0,1,.32-.08l.13,0a2.29,2.29,0,0,1,1-.5l.14,0a.35.35,0,0,1,.33,0,.45.45,0,0,1,.09.61.4.4,0,0,1-.18.1c-.23,0-.29-.27-.48-.36A3.88,3.88,0,0,1,88.8,33.9Z"/>
        <path class="cls-65" d="M110.5,26.29c.77.08,1.5.52,2.32.3.05,0,.15.16.23.25.28.23.61-.39.88,0,.16.26.45.22.68.3.11.23.58,0,.54.42a.87.87,0,0,0-.28.84.48.48,0,0,1-.33.57c-.22.09-.5.08-.6-.11-.39-.73-.86-.41-1.39-.15a1.19,1.19,0,0,0,.89.55c1.5.38,3,.67,4.52,1,.39.09.63-.14.93-.28a2.43,2.43,0,0,0,1.52,2c.49.28,1.32.47,1.32,1.35a2.12,2.12,0,0,1-.1.7,12.13,12.13,0,0,0-.55,2.93,4.42,4.42,0,0,1-.83,2.63,3.71,3.71,0,0,1-3,.91.84.84,0,0,0-.6.16,12.74,12.74,0,0,1-4-.54c-.86-.27-1.55-.94-2.45-1.17-.18,0-.28-.25-.34-.44a10.3,10.3,0,0,1,0-2.15c0-.11,0-.29-.09-.32-.68-.18-.8-.9-1.28-1.28a1.78,1.78,0,0,1-.31-2l.11-.06a.57.57,0,0,0,.24-.42,28,28,0,0,0,.85-4.71.45.45,0,0,1,.29-.45.84.84,0,0,0,.43-.7C110.15,26.35,110.36,26.42,110.5,26.29Z"/>
        <path class="cls-73" d="M118.89,30c0,.58-.32.7-.87.57-1.48-.36-3-.65-4.45-1a6.15,6.15,0,0,1-1.15-.43c-.28-.12-.24-.38-.19-.62s.2-.35.47-.21.35,0,.49-.17c.36-.4.66-.46.71.2,0,.25.1.42.35.48a.36.36,0,0,0,.39-.12c.18-.23,0-.37-.11-.57-.28-.63.23-.55.58-.59.51,0,.84.32,1.22.56a5,5,0,0,0,1.36.59A2.2,2.2,0,0,1,118.89,30Z"/>
        <path class="cls-74" d="M120.06,39.65c.68-.73.51-1.8,1-2.6a.88.88,0,0,0,.29-.71c.14-1.18.75-2.28.64-3.51a.8.8,0,0,0-.47-.74c-.36-.2-.73-.46-.36-1,.09.15.51.14.18.5-.08.1.22.34.45.38.44.07.53.31.51.76a31.83,31.83,0,0,1-.79,4.23,15.59,15.59,0,0,1-.8,2.42A.47.47,0,0,1,120.06,39.65Z"/>
        <path class="cls-47" d="M116.33,28.15c-.49,0-.81-.37-1.22-.56l-.5-.41a11.26,11.26,0,0,1,1.39.45Z"/>
        <path class="cls-75" d="M125.62,36a.65.65,0,0,0,.4.91c.21.1.43.2.49.47-.24.41-.1,1-.61,1.27a.57.57,0,0,1-.63-.37c-.19-.71-.77-.74-1.32-.88s-.86,0-1.26-.2a2.12,2.12,0,0,1,.5-2.59,1.43,1.43,0,0,1,.8-.28c.27,0,.45,0,.59.32C124.8,35.14,125.31,35.48,125.62,36Z"/>
        <path class="cls-76" d="M120.06,39.65a.94.94,0,0,0,.75-.87,2.79,2.79,0,0,1,.72-1.78l.14,0a4.62,4.62,0,0,1-1.21,3c-.12.08-.27.11-.39.19s-.37.09-.29.33.27.17.43.18.38,0,.38-.28a.65.65,0,0,1,.4-.49c.39,0,.78-.11,1,.3-.08.35-.92.08-.61.75a2,2,0,0,1-1.18.64.42.42,0,0,0-.68,0c-.11.11-.13.24-.3.11-.64-.47-1.41-.15-2.09-.35,0-.4-.52-.48-.55-.87a.53.53,0,0,1,.58-.17A4.27,4.27,0,0,0,120.06,39.65Z"/>
        <path class="cls-77" d="M121,40l-.27.54a.94.94,0,0,0-.52.33c-.16,0-.34.1-.49,0s-.49-.12-.51-.34.28-.38.5-.44a1.68,1.68,0,0,0,1.32-1.61c0-.56.57-.9.61-1.45a8.39,8.39,0,0,0,.71-3c0-.22,0-.48.28-.5s.15.22.15.37a.63.63,0,0,1,.14.68,8.09,8.09,0,0,0-.35,2.34,18.23,18.23,0,0,1-.87,2.48A1,1,0,0,1,121,40Z"/>
        <path class="cls-63" d="M126,38.56a6,6,0,0,0,.14-.93c0-.33.17-.34.42-.29a1.39,1.39,0,0,1,.66,1l.48.55a2.3,2.3,0,0,0,.55.86l0,.14a3.06,3.06,0,0,1-2.25-.56C125.71,39.1,125.63,38.82,126,38.56Z"/>
        <path class="cls-78" d="M122.44,36.9c.13-1,.25-2,.37-3,.24-.21.48-.59.68,0a.29.29,0,0,0,.23.15c1-.07,1.14,1,1.81,1.38.19.11.13.34.09.53-.65-.18-.88-.77-1.17-1.26-.15-.24-.17-.29-.44-.24a1.38,1.38,0,0,0-1.24,1.5c0,.38,0,.76-.07,1.15a1.64,1.64,0,0,1-.46,1.66c-.37,0-.25-.24-.21-.44C122.11,37.83,122.4,37.41,122.44,36.9Z"/>
        <path class="cls-52" d="M127.65,38.93c-.25-.11-.49-.22-.48-.55C127.5,38.41,127.6,38.65,127.65,38.93Z"/>
        <path class="cls-79" d="M91.05,33.93a.66.66,0,0,1,0-.14.88.88,0,0,0,0-.6c-.09-.2,0-.45-.15-.63h0c-.13-.3-.44.2-.57-.12h0a13.22,13.22,0,0,1,.44-3.06,4.64,4.64,0,0,0,.69-1.69,1.26,1.26,0,0,0-.22-1.13c-.09-.34.12-.52.37-.67.23.11.26-.29.48-.19.76-.1.76.65,1.13,1l-.22,1c.17.26.06.49,0,.75a4.87,4.87,0,0,0-.27,2.34c.11.74,0,1.52.06,2.29A2.12,2.12,0,0,0,94.1,35a9.37,9.37,0,0,1,1.44.66l2.41.53a2.63,2.63,0,0,1,.63.57c.18.2.21.43-.1.58a1.56,1.56,0,0,1-.71-.08,13.58,13.58,0,0,0-3.85-.77.84.84,0,0,1-.83-.47c-.9-.33-1.08-1.33-1.76-1.87Z"/>
        <path class="cls-80" d="M91.58,25.88l-.3.68c0,.07,0,.17,0,.21a4.31,4.31,0,0,1-1.8,1.32c-.14-.19,0-.35.07-.52s.06-.49-.28-.56A5.34,5.34,0,0,1,91.58,25.88Z"/>
        <path class="cls-81" d="M93.19,26.68c-.21.1-.55.32-.51-.09s-.3-.68-.62-.9a8.81,8.81,0,0,1,2.06-.59l.15,0c.07.43-.25.64-.51.86A1.66,1.66,0,0,0,93.19,26.68Z"/>
        <path class="cls-82" d="M122.18,38.78a9.52,9.52,0,0,1,.52-1.67,4.55,4.55,0,0,1,2.45.25.26.26,0,0,1,.22.32c-.13.51.28.66.58.88-.13.54.11.78.64.89s1,.32,1.58.48a5,5,0,0,1,.2.54c.17.69-.19,1.07-.89.94s-1.54-.34-2.32-.5c-.25,0-.5-.18-.76,0-.56-.19-.92-.67-1.41-.94-.16-.2-.4-.24-.6-.35S121.83,39.16,122.18,38.78Z"/>
        <path class="cls-37" d="M123.14,39.87a1.9,1.9,0,0,1,1.26,1l.28.06c-.17.37-.3.78-.78.87l-.14,0c-.32-.43-.58-.9-.93-1.31a2,2,0,0,0-.18-.23c-.19-.21-.71-.37-.45-.66S122.91,39.47,123.14,39.87Z"/>
        <path class="cls-79" d="M108.2,38.85A5.37,5.37,0,0,1,107,35.51c-.06-.14.08-.37-.12-.43s-.28.12-.34.27-.17.22-.23.34a7.93,7.93,0,0,1-.72,1,4.23,4.23,0,0,1-1.77,1.2c-.15.23-.4.12-.61.18s-.51.09-.73-.1c-.15-.4.15-.45.4-.5a1.64,1.64,0,0,0,1-.57c.06-.24-.05-.52.14-.73.57-.59,1.12-1.18,1.7-1.75a1.16,1.16,0,0,0,.44-1c0-.41.38-.5.68-.64s.57-.19.65.25c-.06.26-.1.48.21.67a.87.87,0,0,1,.38,1.18c-.13.28,0,.68-.12.91-.28.51.17.2.25.29a.51.51,0,0,1,.31.28,6.16,6.16,0,0,0,1.38,2.13.45.45,0,0,0,.25.34c1.81.67,3.49,1.83,5.55,1.59.33,0,.57.28.89.12a1.58,1.58,0,0,0,.44.24c.61.12.42.35.11.63-1.56.59-3-.07-4.41-.5-.64-.19-1.31-.29-2-.42-.6.16-1-.22-1.45-.53a2.18,2.18,0,0,0-.38-.3c-.21-.13-.35-.33-.56-.46A.36.36,0,0,1,108.2,38.85Z"/>
        <path class="cls-83" d="M123.14,39.87a1,1,0,0,0-.91-.23c.25.32.74.36.78.8a.31.31,0,0,1-.46.05,1,1,0,0,0-.53-.26c-.32-.14-.69,0-1-.22a16.76,16.76,0,0,0,1.41-3.11c.22.34-.11.57-.17.85s-.27.67-.09,1c-.1.41.07.62.47.69C122.88,39.52,123.14,39.54,123.14,39.87Z"/>
        <path class="cls-54" d="M122.55,40.49l.46-.05c.57.27.53.88.75,1.35A3.59,3.59,0,0,1,122.55,40.49Z"/>
        <path class="cls-84" d="M96.58,24.74c.3.3.06.35-.18.35s-.32-.16-.42-.32A.94.94,0,0,1,96.58,24.74Z"/>
        <path class="cls-40" d="M97.2,24.58c-.12.33-.28.18-.45,0A.51.51,0,0,1,97.2,24.58Z"/>
        <path class="cls-85" d="M105.11,25.11l.85.19c.08.33.24.63-.21.92s-.29.73.22.86c.67.16,1.35.3,2,.44a2.83,2.83,0,0,1-.56,2.56c-.62.53-.92-.2-1.35-.38s-.24-.48-.18-.76c.18-.94.19-1-.79-1.14-1.48-.21-2.73-1.18-4.23-1.33.68.08,1.36.15,2,.25.46.07.83,0,.9-.52a.44.44,0,0,1,.49-.42c.5,0,.59-.32.65-.7A.09.09,0,0,1,105.11,25.11Z"/>
        <path class="cls-86" d="M107.44,30.08c.19-.86.37-1.71.56-2.56a1.69,1.69,0,0,0,.27-1.35c-.1-.36.16-.32.38-.29l1,.22a1.14,1.14,0,0,1-.65,1c-.3.17-.52.39-.11.71s.11.53.07.81a25.7,25.7,0,0,0-.76,4.17h0a.44.44,0,0,0-.13.24c-.07.18,0,.47-.3.47s-.31-.24-.37-.43-.33-.24-.54-.27c.47-.52.14-1.21.38-1.79A5.34,5.34,0,0,0,107.44,30.08Z"/>
        <path class="cls-63" d="M110.5,26.29c0,.48-.31.15-.49.19C110.1,26.22,110.29,26.24,110.5,26.29Z"/>
        <path class="cls-87" d="M93.11,27.7c.39-.05.51.12.49.5,0,.64.23.84.86.74.07,0,.13-.06.2-.07,1-.16,1.4.24,1.2,1.23-.13.62-.19,1.3-1.12,1.11a.3.3,0,0,0-.26.09c-.28.41-.59.74-1.15.65,0,0-.12.23-.18.36-.51.14-.69-.13-.6-.57a3.33,3.33,0,0,0-.11-1.47,3.36,3.36,0,0,1,.32-1.8A2.66,2.66,0,0,1,93.11,27.7Z"/>
        <path class="cls-88" d="M104,36.17l.13.77a.67.67,0,0,1-.47.14,1.16,1.16,0,0,0-1.51,1,4,4,0,0,1-1.85,0c-1.68-.34-3.35-.72-5-1.09-.27-.06-.58-.07-.75-.52a5.33,5.33,0,0,1,2.09.32,7.84,7.84,0,0,0,2,.4c-.05-.46-.46-.68-.67-1,.5.12.79.6,1.29.73a4.4,4.4,0,0,0,2.71-.15,2,2,0,0,1,1-.2C103.39,36.63,103.69,36.34,104,36.17Z"/>
        <path class="cls-89" d="M93.11,27.7c-.12.36-.28.71-.37,1.08a2.71,2.71,0,0,0,0,2,1.24,1.24,0,0,1,0,.85c-.1.38.07.59.45.66a1.68,1.68,0,0,0,1.14,1.94c.3.12.57.26.58.7s.54.37.67.7a8.06,8.06,0,0,1-1.93-.56,2.64,2.64,0,0,1-1.18-1.87,27,27,0,0,0-.08-3,3.82,3.82,0,0,1,.4-2c.07-.21.15-.41.22-.61Z"/>
        <path class="cls-90" d="M105.11,25.11l-.14,0c-.5.36-.91.58-1.31-.2-.19-.36-.88-.11-1.21-.49l1.41.3C104.3,24.76,104.87,24.44,105.11,25.11Z"/>
        <path class="cls-32" d="M91,29.32c-.26,1-.12,2.15-.68,3.11a.75.75,0,0,0-1.06-.27c-.68.36-1.48,0-2.18.29a.42.42,0,0,1-.38-.15,1.17,1.17,0,0,0-1.51-.46.46.46,0,0,1-.62-.35c-.06-.27.18-.36.39-.43a11.76,11.76,0,0,0,3.52-2.44,6.38,6.38,0,0,0,2.43-1.24c.19-.15.39-.33.64-.18s0,.35,0,.52A3.7,3.7,0,0,1,91,29.32Z"/>
        <path class="cls-91" d="M91,29.32a8.76,8.76,0,0,0,.49-1.58c0-.15.16-.35-.09-.42s-.26.09-.31.23a.83.83,0,0,1-.94.6,1.25,1.25,0,0,0-.79.33.9.9,0,0,1-.88.14c.25-.34.75-.19,1-.53a13.29,13.29,0,0,1,1.82-1.53c.27-.07.56,0,.49.29A4.37,4.37,0,0,1,91,29.32Z"/>
        <path class="cls-92" d="M90.3,32.44c.46,0,.28-.51.59-.68.2.28,0,.54,0,.8C90.68,32.53,90.38,33,90.3,32.44Z"/>
        <path class="cls-92" d="M90.6,33.1a2.1,2.1,0,0,1-1,.5A.79.79,0,0,1,90.6,33.1Z"/>
        <path class="cls-51" d="M86.75,28.24A4.78,4.78,0,0,1,88,27.47,1.47,1.47,0,0,1,86.75,28.24Z"/>
        <path class="cls-92" d="M90.87,32.56c.33.14.19.4.15.63l-.28-.07C90.91,33,90.84,32.75,90.87,32.56Z"/>
        <path class="cls-44" d="M89.46,33.58l-.32.08-.08-.31C89.27,33.29,89.41,33.35,89.46,33.58Z"/>
        <path class="cls-93" d="M109.92,38.48c-1.17-.32-1.23-1.47-1.72-2.3a1,1,0,0,1,.31-1.42c.16,0,.43-.09.43.1,0,.62.35.87.91,1,.25,0,.27.3.23.54-.08.5-.33,1,0,1.52C110.26,38.07,110,38.28,109.92,38.48Z"/>
        <path class="cls-94" d="M108.51,34.76a3.34,3.34,0,0,0-.31,1.42c-.15-.06-.52.26-.41-.26s-.17-1,.24-1.5c.18-.23-.29-.44-.51-.58s-.56-.46-.12-.8c.49.57.57-.06.8-.28A2.6,2.6,0,0,0,108.51,34.76Z"/>
        <path class="cls-55" d="M120.24,40.88c0-.2-.29-.4,0-.59s.34.25.57.26c-.08.2.27.4.06.57S120.48,40.87,120.24,40.88Z"/>
        <path class="cls-92" d="M91.44,33.28s0-.11,0-.16.09-.18.19-.11,0,.13,0,.19S91.55,33.33,91.44,33.28Z"/>
        <path class="cls-95" d="M106.25,35.61c.06-.1.13-.2.18-.3.15-.25.21-.71.57-.57s.06.5,0,.77c-.39-.77-.37.2-.59.14S106.28,35.71,106.25,35.61Z"/>
        <path class="cls-96" d="M106.25,35.61l.15,0a2,2,0,0,1-.82,1C105.66,36.24,106.05,36,106.25,35.61Z"/>
        <path class="cls-97" d="M102.48,37.9l-.29-.06c0-1,0-1,1-1a4.12,4.12,0,0,1,1,.11,1.41,1.41,0,0,1-1.29.75C102.69,37.69,102.55,37.71,102.48,37.9Z"/>
      </g>
      <path class="cls-98" d="M139.54,41.09c-5.36-27.18-18.42-25.68-18.42-25.68l-9.85.28s-3-.35-10.37-4C89.7,6.57,79.17,16.59,69.81,30.55c-1,2.74-7.72,10.53-7.72,10.53l1.73,18.34s0,26.41,29.24,33.32,40-18.53,40-18.53,5.68-10.13,9.75-15.69A41.36,41.36,0,0,1,139.54,41.09Zm-15,30.08s-8,12.16-27.63,8.3S72,60.75,72,60.75s-.6-13.42-5.77-18.94c0,0,9.4-2.36,15.58-9.19,5-5.55,32.39-19.94,48.68,10.59,3,10.68,8.23,14.58,8.23,14.58Z"/>
    </g>
  </g>
</svg>
