<svg id="Capa_1" data-name="Capa 1" xmlns="http://www.w3.org/2000/svg" viewBox="0 0 568.83 104.25">
  <defs>
    <style>
      .cls-1 {
        fill: #2e2c7d;
      }

      .cls-2 {
        fill: #dfcdd9;
      }

      .cls-3 {
        fill: #dfcbd5;
      }

      .cls-4 {
        fill: #e1b9c8;
      }

      .cls-5 {
        fill: #e1cad5;
      }

      .cls-6 {
        fill: #e9dde7;
      }

      .cls-7 {
        fill: #e8dae2;
      }

      .cls-8 {
        fill: #ead8e2;
      }

      .cls-9 {
        fill: #e1d1dc;
      }

      .cls-10 {
        fill: #59444f;
      }

      .cls-11 {
        fill: #5a434f;
      }

      .cls-12 {
        fill: #e6d7e0;
      }

      .cls-13 {
        fill: #f3e5ec;
      }

      .cls-14 {
        fill: #f1e1ea;
      }

      .cls-15 {
        fill: #eac7d7;
      }

      .cls-16 {
        fill: #ebdde6;
      }

      .cls-17 {
        fill: #e8d9e1;
      }

      .cls-18 {
        fill: #e4e0e3;
      }

      .cls-19 {
        fill: #e5e2e6;
      }

      .cls-20 {
        fill: #f2e8ed;
      }

      .cls-21 {
        fill: #f3e8f0;
      }

      .cls-22 {
        fill: #eee3ec;
      }

      .cls-23 {
        fill: #ebe4eb;
      }

      .cls-24 {
        fill: #a4939d;
      }

      .cls-25 {
        fill: #e8dee6;
      }

      .cls-26 {
        fill: #e8dde5;
      }

      .cls-27 {
        fill: #f0e4ec;
      }

      .cls-28 {
        fill: #e9dfe5;
      }

      .cls-29 {
        fill: #ead4e1;
      }

      .cls-30 {
        fill: #a49aa2;
      }

      .cls-31 {
        fill: #ebe5e9;
      }

      .cls-32 {
        fill: #f3e9f1;
      }

      .cls-33 {
        fill: #f3e9ef;
      }

      .cls-34 {
        fill: #ecd5df;
      }

      .cls-35 {
        fill: #e7c7d5;
      }

      .cls-36 {
        fill: #ebc9d6;
      }

      .cls-37 {
        fill: #e7d9e2;
      }

      .cls-38 {
        fill: #e4c3cf;
      }

      .cls-39 {
        fill: #e5bcca;
      }

      .cls-40 {
        fill: #ecd8e2;
      }

      .cls-41 {
        fill: #902f4f;
      }

      .cls-42 {
        fill: #e8d4df;
      }

      .cls-43 {
        fill: #ded2da;
      }

      .cls-44 {
        fill: #e4d2de;
      }

      .cls-45 {
        fill: #f1e6ed;
      }

      .cls-46 {
        fill: #e9dce3;
      }

      .cls-47 {
        fill: #ebdbe2;
      }

      .cls-48 {
        fill: #e4d8dd;
      }

      .cls-49 {
        fill: #ebdde5;
      }

      .cls-50 {
        fill: #e6bbcd;
      }

      .cls-51 {
        fill: #ead2de;
      }

      .cls-52 {
        fill: #eddfe8;
      }

      .cls-53 {
        fill: #ebdfe5;
      }

      .cls-54 {
        fill: #e9d9e4;
      }

      .cls-55 {
        fill: #e7d7e0;
      }

      .cls-56 {
        fill: #e4cdda;
      }

      .cls-57 {
        fill: #e1c9d7;
      }

      .cls-58 {
        fill: #ebd5e0;
      }

      .cls-59 {
        fill: #e7d8df;
      }

      .cls-60 {
        fill: #dfa0b9;
      }

      .cls-61 {
        fill: #f7dee9;
      }

      .cls-62 {
        fill: #923653;
      }

      .cls-63 {
        fill: #f3e8ee;
      }

      .cls-64 {
        fill: #eee3ed;
      }

      .cls-65 {
        fill: #f3e9f0;
      }

      .cls-66 {
        fill: #ece7eb;
      }

      .cls-67 {
        fill: #ebdfe7;
      }

      .cls-68 {
        fill: #d5a6b7;
      }

      .cls-69 {
        fill: #dfd5d9;
      }

      .cls-70 {
        fill: #ebdbe6;
      }

      .cls-71 {
        fill: #e5cddc;
      }

      .cls-72 {
        fill: #dac9d5;
      }

      .cls-73 {
        fill: #f3e8f1;
      }

      .cls-74 {
        fill: #eee2eb;
      }

      .cls-75 {
        fill: #f4e7f0;
      }

      .cls-76 {
        fill: #e9dee7;
      }

      .cls-77 {
        fill: #e5dbe3;
      }

      .cls-78 {
        fill: #efe3eb;
      }

      .cls-79 {
        fill: #ebdee7;
      }

      .cls-80 {
        fill: #e9dde3;
      }

      .cls-81 {
        fill: #e8dce2;
      }

      .cls-82 {
        fill: #f4e9f1;
      }

      .cls-83 {
        fill: #e9dfe6;
      }

      .cls-84 {
        fill: #e8e2e8;
      }

      .cls-85 {
        fill: #f5e9f3;
      }

      .cls-86 {
        fill: #eadfe7;
      }

      .cls-87 {
        fill: #f6e9f2;
      }

      .cls-88 {
        fill: #eee1eb;
      }

      .cls-89 {
        fill: #f3e7f0;
      }

      .cls-90 {
        fill: #edebef;
      }

      .cls-91 {
        fill: #f0e5ec;
      }

      .cls-92 {
        fill: #e2d5de;
      }

      .cls-93 {
        fill: #f5e8f1;
      }

      .cls-94 {
        fill: #efe4ed;
      }

      .cls-95 {
        fill: #d6c6d1;
      }

      .cls-96 {
        fill: #d4bdca;
      }

      .cls-97 {
        fill: #e8dfe7;
      }

      .cls-98 {
        fill: #d9205a;
      }
    </style>
  </defs>
  <title>Mesa de trabajo 1</title>
  <path class="cls-1" d="M31.27,37.93c0,.36-5.45,32.24-3.8,48.6.13,1.84-2.28,3.33-5.58,3.47h-.25c-3.17,0-5.71-1.34-5.83-3.11C14,70,19.48,38.64,19.61,37.29c.38-1.77,3.3-3.11,6.47-2.9S31.65,36.16,31.27,37.93ZM20,24.33a5.29,5.29,0,0,1,3.62-5A7.86,7.86,0,0,1,25.62,19a6.35,6.35,0,0,1,2.83.56A5.16,5.16,0,0,1,31.29,25a5.62,5.62,0,0,1-5.67,5.24h-.14A5.72,5.72,0,0,1,20,24.33Z"/>
  <path class="cls-1" d="M536.64,63.09c0-.36,5.45-32.24,3.81-48.6-.13-1.85,2.28-3.33,5.57-3.47h.26c3.17,0,5.7,1.34,5.83,3.11,1.77,16.86-3.68,48.25-3.8,49.59-.38,1.78-3.3,3.12-6.47,2.91S536.26,64.86,536.64,63.09ZM548,76.69a5.28,5.28,0,0,1-3.61,5,8,8,0,0,1-2.05.28,6.39,6.39,0,0,1-2.84-.56,5.16,5.16,0,0,1-2.83-5.39,5.6,5.6,0,0,1,5.67-5.24h.14A5.71,5.71,0,0,1,548,76.69Z"/>
  <path class="cls-1" d="M166.28,18.05a5,5,0,0,1,1.28,3.54c0,.14-1.06,36.84-1.28,42.37V64c0,1.34-.07,2.76-.07,4.25-.14,3.47-.28,7.44-.07,10.62A4.68,4.68,0,0,1,165,82.45a5.1,5.1,0,0,1-3.4,1.7h-.36a4.93,4.93,0,0,1-4.88-4.54,102.37,102.37,0,0,1,0-11.62l.07-.28c0-1.63.07-3.19.07-4.53-1.35-.07-3.33-.22-6.31-.22-2.62,0-5.74.08-9.21.22-1.56.07-3,.14-4.32.28.07,8.15,0,14.52-.14,15.94a5,5,0,0,1-5.24,4.54,4.92,4.92,0,0,1-4.54-5.25c.07-.78.14-6.94.14-15.8a4.4,4.4,0,0,1-1.2-2,4.8,4.8,0,0,1,1.13-4.82c-.14-12-.56-27.77-1.7-37.26a5,5,0,0,1,4.25-5.53h.57a4.91,4.91,0,0,1,4.89,4.32C136,27,136.46,42,136.6,53.61l3.9-.21a154.33,154.33,0,0,1,16.36,0c.36-12.68.92-31.81.92-32.09A4.81,4.81,0,0,1,163,16.56,5.13,5.13,0,0,1,166.28,18.05Z"/>
  <path class="cls-1" d="M175.07,74.37a4.49,4.49,0,0,1,3-4.25,5.41,5.41,0,0,1,1.7-.28,5.2,5.2,0,0,1,2.34.49,4.38,4.38,0,0,1,2.34,4.54,4.68,4.68,0,0,1-4.68,4.39h-.14A4.66,4.66,0,0,1,175.07,74.37Z"/>
  <path class="cls-1" d="M191.72,74.37a4.49,4.49,0,0,1,3-4.25,5.41,5.41,0,0,1,1.7-.28,5.2,5.2,0,0,1,2.34.49,4.38,4.38,0,0,1,2.34,4.54,4.68,4.68,0,0,1-4.68,4.39h-.14A4.65,4.65,0,0,1,191.72,74.37Z"/>
  <path class="cls-1" d="M208.36,74.37a4.5,4.5,0,0,1,3-4.25,5.41,5.41,0,0,1,1.7-.28,5.2,5.2,0,0,1,2.34.49,4.38,4.38,0,0,1,2.34,4.54A4.68,4.68,0,0,1,213,79.26h-.14A4.66,4.66,0,0,1,208.36,74.37Z"/>
  <path class="cls-1" d="M263.84,33.92a15.39,15.39,0,0,1-3.62,11.9,23.91,23.91,0,0,1-9.14,6.45l6.38,23.66a4.91,4.91,0,0,1-3.4,5.95,4.85,4.85,0,0,1-5.95-3.4L241.8,55.24a64,64,0,0,1-7.51,1.35c-.07,19.41.14,22.81.29,23.38a4.81,4.81,0,0,1-.92,3.61,4.58,4.58,0,0,1-3.12,1.91,3,3,0,0,1-.78.07,4.75,4.75,0,0,1-4.75-4.1c-.14-.93-.56-3.41-.35-28.7a.76.76,0,0,1-.07-.35,3.74,3.74,0,0,1,.07-.92v-.36c.07-12.89-.07-30.25-.07-30.39a5.73,5.73,0,0,1,.35-1.91c.07-.22.21-.36.28-.57l.15-.21c.14-.14.21-.29.35-.43s.14-.21.21-.35.29-.21.36-.21a.9.9,0,0,1,.42-.36,1.57,1.57,0,0,1,.57-.35l.35-.14a2,2,0,0,1,.71-.29h.07c11.76-2.41,21-1.2,27.42,3.69A20.7,20.7,0,0,1,263.84,33.92ZM234.36,46.81c7.16-1,15.24-3.33,18.49-7.23a6,6,0,0,0,1.35-4.74,11.2,11.2,0,0,0-4.32-7.58c-3.4-2.55-8.64-3.4-15.59-2.48C234.29,28.82,234.36,38,234.36,46.81Z"/>
  <path class="cls-1" d="M316.12,58.29c3,15.44-5.74,22.81-10.77,24.51A27.8,27.8,0,0,1,297,84.15a20.57,20.57,0,0,1-12.18-3.83c-13.32-9.49-14.6-33.44-14.81-36.13C269.22,36,271.13,29,276,23.64c9.21-10.2,25.36-10.34,26-10.34a5.1,5.1,0,1,1,0,10.2c-.07,0-12.33.14-18.42,7-2.83,3.18-4,7.51-3.4,12.89v.35c.21,6,2.62,22.6,10.56,28.34,3.11,2.2,6.8,2.55,11.54,1.07.36-.08,4.33-1.85,4.33-8.72h-.78a5.1,5.1,0,1,1,0-10.2h5.31A5.09,5.09,0,0,1,316.12,58.29Z"/>
  <path class="cls-1" d="M369.75,76.71a4.91,4.91,0,0,1-.14,3.89,5.08,5.08,0,0,1-3,2.7,4.94,4.94,0,0,1-1.77.35,5.11,5.11,0,0,1-4.82-3.4c-1.06-3-3.18-10.41-5.81-19.77l-1.7-6.23c-3.82.07-8.07.07-11.54,0-1.85,8.08-3.76,16.79-5.53,25.29a5.33,5.33,0,0,1-6.16,4,5.11,5.11,0,0,1-4-6.09c1.91-9.35,3.75-17.64,5.31-24.66a5.24,5.24,0,0,1-1.56-3.89,5,5,0,0,1,3.62-4.82c7-29.69,9.14-31.1,13-31.25h.64c4.39,0,5.81,2.13,14,30.75a5.16,5.16,0,0,1,5.24,4.54,5,5,0,0,1-1,3.82A4.65,4.65,0,0,1,363,53.19l1.2,4.32C366.7,66.44,368.83,74.09,369.75,76.71ZM346.23,32.64c-.78,3.19-1.77,7-2.76,11.27,2,.07,4.11.07,6.16.07C348.35,39.51,347.22,35.76,346.23,32.64Z"/>
  <path class="cls-1" d="M414.1,66.79c-.78,13.32-16.08,18.07-30,18.07H384A4.82,4.82,0,0,1,379.1,80,4.9,4.9,0,0,1,384,75.08c.85,0,19.84-.07,20.4-8.93.15-2.19-4.11-4.82-6.09-5.52-19-6.66-22.39-16.44-22.95-18.35-2.2-7-1.78-13.11,1.48-18.14C382.5,15.43,394.47,14.08,395,14a4.9,4.9,0,0,1,5.31,4.39A4.85,4.85,0,0,1,396,23.72c-.07,0-7.93,1-11,5.73-1.56,2.48-1.7,5.81-.35,10,.07.14.07.22.14.36.21.56,3,6.87,16.86,11.69C402.27,51.7,414.74,56.59,414.1,66.79Z"/>
  <path class="cls-1" d="M477.37,17.69c.07.57,4.53,52.78,3.47,62.14A4.84,4.84,0,0,1,476,84.15h-.57a5,5,0,0,1-4.25-5.39c.57-5-.92-27.7-2.55-48.95-4.82,5.67-10.91,13-15.23,18.21a4.85,4.85,0,0,1-7.37.14L430.89,30.94c-.85,11.55-1.77,30.82-2.27,46.55a4.83,4.83,0,0,1-5.1,4.6,5.1,5.1,0,0,1-3.33-1.49,4.9,4.9,0,0,1-1.27-3.47c2.12-60.07,3.33-60.57,6.94-61.85a5.25,5.25,0,0,1,5.38,1.42l18.35,20.83c6-7.3,17.22-20.69,19.7-23a4.85,4.85,0,0,1,8.08,3.11Z"/>
  <path class="cls-1" d="M494.08,74.94a.83.83,0,0,1-.28-.22c-13.11-14-7.3-30.18-2.62-37.33,6.16-9.57,12.4-11.9,16.79-11.9,7.44,0,12.82,5.59,13.39,6.23l.28.28a32.47,32.47,0,0,1,.85,39.25C518,77.13,512.43,80,506.77,80A19.72,19.72,0,0,1,494.08,74.94Zm12.69-6.31c3,0,5.88-1.63,8.57-5a19.5,19.5,0,0,0-.64-23.66c-.57-.57-3.4-3.12-6.73-3.12s-6.23,2.41-9,7.23c-.14.14-.21.35-.35.49-1.28,1.85-7.51,11.76,1.49,21.61A11.3,11.3,0,0,0,506.77,68.63Z"/>
  <g>
    <g>
      <path class="cls-2" d="M97.81,81.76l-.72.36c-.29.27-.74.18-1,.46a.86.86,0,0,1-1-.21,2.28,2.28,0,0,1,2.65-.75Z"/>
      <path class="cls-3" d="M96.18,80.77a4.81,4.81,0,0,1,2.7.64,1.52,1.52,0,0,1-1.07.35l0-.07c0-.08,0-.15,0-.23C97.24,81.16,96.49,81.44,96.18,80.77Z"/>
      <path class="cls-4" d="M81.18,82.89l-.56-.16a.22.22,0,0,1,.09-.28,3.39,3.39,0,0,1,2.5.26.47.47,0,0,1,.16.27c-.33.58-.75-.07-1.12.08Z"/>
      <path class="cls-4" d="M88.37,83.22a1.41,1.41,0,0,0-1.14,0,.71.71,0,0,1-.62,0,1.37,1.37,0,0,0-.85,0c-.75.27-1.47-.08-2.2-.11l-.2-.12,0-.11a.27.27,0,0,1,.14-.25.89.89,0,0,1,.43-.08c.87-.08,1.74.11,2.61,0h.3c.61.05,1.22-.24,1.83,0a.64.64,0,0,1,.46.41Z"/>
      <path class="cls-5" d="M93.07,82.69s-.06.11-.09.15A7.58,7.58,0,0,0,91.2,83a4.64,4.64,0,0,1-1.74-.15v-.14a.5.5,0,0,1,.42-.29,7.62,7.62,0,0,0,1.17,0,1.27,1.27,0,0,1,.28,0C91.91,82.47,92.59,82,93.07,82.69Z"/>
      <path class="cls-5" d="M89.08,83l-.6-.17c0-.19.15-.26.31-.3a.6.6,0,0,1,.67.32h0A.39.39,0,0,1,89.08,83Z"/>
      <path class="cls-6" d="M76.48,76.25l.33-.45a1.52,1.52,0,0,1,1.56-.51,16.16,16.16,0,0,1,3.25.77,10,10,0,0,0,3,.65,3.45,3.45,0,0,1,2.16.58,3.68,3.68,0,0,1,2.63,1.61.42.42,0,0,1,0,.43c0,.23.2.5-.15.64a13.93,13.93,0,0,0-1.43-.17c-1.06-.32-2.18-.43-3.22-.82-1.07-.55-2.32-.65-3.38-1.24-1.17-.32-2.3-.88-3.57-.63-.19,0-.49,0-.53-.12-.14-.43-.51-.27-.78-.36A.38.38,0,0,1,76.48,76.25Z"/>
      <path class="cls-7" d="M75.9,77.17l.39-.9.19,0-.06.44a.6.6,0,0,1,.15.54c-.46,1.09,0,2.22-.11,3.32-.16.21-.39.15-.6.18s-.6-.28-.25.26c.18.27,0,.37-.27.43-1-.24-2.12-.08-2.94-.9a.69.69,0,0,1,.3-.84c.64-.2,1-.83,1.62-1.11s.46-1,.38-1.67a2.33,2.33,0,0,0-.2-.73c-.06-.37-.35-.56-.6-.78s-.54-.34-.45-.73a.31.31,0,0,1,.25-.06,2.34,2.34,0,0,1,1.62,2.64,2.8,2.8,0,0,1,.15.3s0,.12.07.1,0,0,0-.09A4,4,0,0,1,75.9,77.17Z"/>
      <path class="cls-8" d="M73.7,74.6l-.2.09a2.12,2.12,0,0,1-1.67.1c-2.35-.33-4.65-.92-7-1.41-.75-.16-1.42-.33-1.77.69-.19.55-.73.53-1.22.27s-.52.52-.94.43a.29.29,0,0,1-.15-.22,2.68,2.68,0,0,1,.61-1.32,2.26,2.26,0,0,1,1.37-.9,43.32,43.32,0,0,1,6.47,1.29A22.17,22.17,0,0,1,73.7,74.6Z"/>
      <path class="cls-9" d="M59.6,72.26l.36.42-.12.11c-.89.23-1.69-.22-2.54-.3A43.89,43.89,0,0,1,52,71.19a.5.5,0,0,1-.41-.36c.2-.47.58-.39,1-.31l2.6.57,3.51.76C59,71.93,59.39,71.91,59.6,72.26Z"/>
      <path class="cls-2" d="M96.18,80.77l1.95.45s.07,0,.08,0-.06.13-.14.15a5.92,5.92,0,0,1-2.18-.08c-1.71-.37-3.42-.8-5.16-1l-.1-.14.54-.43a.38.38,0,0,1,.58-.09Z"/>
      <path class="cls-2" d="M89.31,79.89c.09-.17-.11-.4.1-.56.23.23.19.56.27.84a5,5,0,0,0,.06.94,3.15,3.15,0,0,0,0,.75.64.64,0,0,1,.22-.27c.37-.41,0-1.21.71-1.43l.06.09a2.88,2.88,0,0,1-.77,2.34l-.46.28-.75-.15a16.34,16.34,0,0,0,.43-2.61A.62.62,0,0,1,89.31,79.89Z"/>
      <path class="cls-9" d="M60,72.68c.78.39.29,1.18.56,1.74a.86.86,0,0,1,.16.56,2.25,2.25,0,0,0,0,1.31.75.75,0,0,1-.31.7.65.65,0,0,1-.68-.33c-.06-1.32.14-2.62.17-3.93Z"/>
      <path class="cls-10" d="M60.41,75l.11-.56c.45-.28.29-1,.87-1.19a5.41,5.41,0,0,0-.49,1.47.38.38,0,0,1-.1.41A.32.32,0,0,1,60.41,75Z"/>
      <path class="cls-11" d="M89.82,81.2l-.2,0a1.91,1.91,0,0,1,.06-1A1.9,1.9,0,0,1,89.82,81.2Z"/>
      <path class="cls-12" d="M58,76.1l-.52-.19-.92-.75c.17-.2.39-.16.62-.13s.59.32.66-.18c0-.35,0-.73-.38-.89a6.11,6.11,0,0,0-1.68-.38,15.62,15.62,0,0,0-2.17-.19c-.73-.2-1.12-1-1.91-1.08-.38-.16-.88-.16-.86-.77l.11-.36.6-.31c1.52-.12,2.83.7,4.26,1a17.2,17.2,0,0,1,4.07.88c.67,1.31.21,2.61,0,3.9-.6.18-1-.2-1.47-.48Z"/>
      <path class="cls-13" d="M53.63,73.39c0-.24,0-.46.38-.39,1.18.25,2.41.22,3.58.58.57.18,1,1.65.53,2.07-.17.17-.35.08-.51-.05a1.71,1.71,0,0,0-1-.44A17.6,17.6,0,0,1,53.63,73.39Z"/>
      <path class="cls-14" d="M89.92,82.59a11.26,11.26,0,0,1,.77-2.34,3.8,3.8,0,0,1,2.24,0c1.7.45,3.43.77,5.14,1.15a3.83,3.83,0,0,0-.29.28,6.74,6.74,0,0,0-2.68.66,6.36,6.36,0,0,1-2,.34c-.66-.26-1.32.12-2,0,0-.63.63-.47,1-.71-.23-.24-.5-.47-.78-.3s-.26.65-.26,1A1.15,1.15,0,0,1,89.92,82.59Z"/>
      <path class="cls-15" d="M58.38,76.15a3.45,3.45,0,0,1,1.47.48l.54.32a1.44,1.44,0,0,1,1.1.24,53.52,53.52,0,0,0,11.83,3.86,27.6,27.6,0,0,0,4.5.82c1,.15,2-.07,2.85.69l0,.17-2.35-.14-.75-.09a4,4,0,0,0-1.6-.22l-5.6-1.19-.7-.18c-2.11-.82-4.31-1.39-6.37-2.32-.38-.16-.77-.3-1.15-.45a.35.35,0,0,1-.51-.17,7.14,7.14,0,0,0-2.72-1.19h0C58.84,76.47,58.26,76.58,58.38,76.15Z"/>
      <path class="cls-16" d="M80.67,82.56a15.54,15.54,0,0,1-2.88-.44.61.61,0,0,1-.53,0c.25-.72-.56-.08-.59-.45-.21-.38-.88-.46-.7-1.09.16-.13.26,0,.37.08.43-.15.78.11,1.16.2.21.06.41.23.64.19,1.59-.31,3.1.31,4.66.33.84.19,1.76.14,2.43.84.4.28,1,.1,1.29.66a15,15,0,0,1-2.76,0,.66.66,0,0,0-.22-.19,3.89,3.89,0,0,0-.61-.16c.19,0,.38.08.45.3a.33.33,0,0,1-.07.13Z"/>
      <path class="cls-17" d="M89.28,80.08c0,.93.38,1.93-.57,2.64l-.23.13-1.78,0a.24.24,0,0,1,0-.25c.16-.13.3-.24,0-.41A5.24,5.24,0,0,0,88,80.85,6.47,6.47,0,0,0,89.28,80.08Z"/>
      <path class="cls-18" d="M86.83,82.31c.55.32-.15.36-.13.56l-.18,0L85,82.51a.35.35,0,0,1,.17-.51A1.39,1.39,0,0,1,86.83,82.31Z"/>
      <path class="cls-19" d="M83.38,82.75l-1.68-.37.08-.29c.68.16,1.48-.11,2,.71Z"/>
      <path class="cls-20" d="M82.64,81.6a4.33,4.33,0,0,1-2.06-.14,4.28,4.28,0,0,0-2.48,0c-.32.13-.51-.16-.67-.4-.41-.36-.76-.74-.49-1.35a3.91,3.91,0,0,0,.66-1.45c.19-.94.68-1.24,1.64-1.14.66.07,1.27.44,2,.22l3.46,1.34a7.49,7.49,0,0,0-2.19,1.2c.52.39,1.33.58,1.14,1.44C83.47,81.92,82.94,81.4,82.64,81.6Z"/>
      <path class="cls-21" d="M82.64,81.6c.18-.28.82.16.76-.48-.05-.46-.37-.62-.79-.72s-.77,0-.74-.55.4-.47.77-.46c.14,0,.38-.09.41-.18.27-1,1-.65,1.61-.53a15.54,15.54,0,0,1,3.53,1A1.17,1.17,0,0,1,88,81a1.87,1.87,0,0,1-1.72.85c-.36,0-.65.24-1,.35l-.27.34C84.41,81.71,83.44,81.86,82.64,81.6Z"/>
      <path class="cls-22" d="M81.2,77.34c-.38.44-.82.2-1.25.12-1.45-.29-1.56-.2-2.06,1.17a1.81,1.81,0,0,1-.78,1.17c-.37-.81-.31-1.77-.82-2.54,0-.19.09-.38.13-.57.34-.25.47-.81,1.14-.7-.13.27-.66.37-.44.71s.56.11.85,0a.87.87,0,0,1,.83,0A10.08,10.08,0,0,0,81.2,77.34Z"/>
      <path class="cls-23" d="M87.91,81c.07-.45,0-.93.28-1.32.5-.49.77.08,1.13.24l0,.19c0,.83-.58.89-1.19.93C88,81.08,88,81.07,87.91,81Z"/>
      <path class="cls-24" d="M75.77,77.72a1.23,1.23,0,0,1-.36.9,1.48,1.48,0,0,1-.09-1.38.35.35,0,0,1,.14.06A1.75,1.75,0,0,1,75.77,77.72Z"/>
      <path class="cls-25" d="M61.27,77.35a1.62,1.62,0,0,1-.88-.4c0-.27.09-.53.13-.8A1.08,1.08,0,0,1,60.76,75l.14-.33.15,0c.14-.1.26-.3.44-.06a1.59,1.59,0,0,1-.18.88,1.53,1.53,0,0,0,.18-.89c-.1-.36.12-.65.19-1l.41.39c.39.41.73.33.77-.22.08-1.07.66-1.16,1.53-1,2.55.57,5.12,1.12,7.69,1.63a11.73,11.73,0,0,1,1.42.18c.37.52,1.34.52,1.25,1.44a.85.85,0,0,1-1.07.41,45.1,45.1,0,0,0-4.44-1.13,7.12,7.12,0,0,0-2.7-.44,9.06,9.06,0,0,0-2-.24c-1.59.09-2,.34-2.39,1.91a1.09,1.09,0,0,1-.18.43C61.81,77.29,61.4,76.94,61.27,77.35Z"/>
      <path class="cls-26" d="M61.27,77.35a1.06,1.06,0,0,1,.14-1c.39.1.07.7.51.75.61-.4,1.16-.11,1.7.15a17.8,17.8,0,0,0,1.68.87c.66.54,1.55.35,2.27.69a16.75,16.75,0,0,0,3.82,1c.39.11.83.11,1.06.53a12.09,12.09,0,0,0,3.16.88c.46-.29.8,0,1.14.25.74.16.74.16.48.49a17.38,17.38,0,0,1-2.88-.52,2.84,2.84,0,0,0-1.12-.15A45.55,45.55,0,0,1,63.4,78.4C62.67,78.1,62,77.7,61.27,77.35Z"/>
      <path class="cls-27" d="M72.45,80.37c-1.37-.3-2.74-.59-4.1-.9-.34-.07-.71-.06-.94-.4.66-.4,1.36-.14,2-.09s1.18.24,1.78.33c1.19.19,1.48-.09,1.41-1.31a2.18,2.18,0,0,1,0-.57c.25-.68,0-1-.71-1.13-1.48-.28-2.93-.7-4.4-1-.44-.08-.91-.11-1.14-.59a5.6,5.6,0,0,1,2.49.26c1.29.44,2.66.64,4,1,.62.14,1.2.62,1.88.2.1.21.31.38.25.65-.36.18-.22.56-.3.85-.14.46-.28.92-.79,1.12s-.46.91-1,1.13A.66.66,0,0,0,72.45,80.37Z"/>
      <path class="cls-28" d="M76.29,77.26c.84.51,1.09,1.26.82,2.54-.17.49.3.82.32,1.26a2.09,2.09,0,0,1-1.09-.44A5.36,5.36,0,0,1,76.29,77.26Z"/>
      <path class="cls-25" d="M73,79.88a3.15,3.15,0,0,1,1-1.44c.36-.23.35-.64.43-1s0-.75.59-.64a4.41,4.41,0,0,1-.16,1.69c-.11.38-.08.81-.77.61C73.54,78.93,73.55,79.9,73,79.88Z"/>
      <path class="cls-29" d="M76.75,81.5l-1.14-.25c-.12-.44-1.1-.17-.81-.8s.75.17,1.17.09C76.09,81,76.77,81,76.75,81.5Z"/>
      <path class="cls-26" d="M61.68,73.68a.85.85,0,0,1-.21.95h0l-.42.1A2,2,0,0,1,61.68,73.68Z"/>
      <path class="cls-30" d="M60.76,75l-.24,1.12c-.57-.34-.14-.77-.11-1.17Z"/>
      <path class="cls-31" d="M91.08,82.64A.88.88,0,0,1,91,81.25c.38-.38,1.29.14,1.8,1-.54.27-1.23-.1-1.7.41Z"/>
      <path class="cls-29" d="M73.23,81.32c1.39-.12,2.66.5,4,.67l.56.13c-1.17.16-2.23-.38-3.35-.54C74,81.53,73.63,81.41,73.23,81.32Z"/>
      <path class="cls-16" d="M87.91,81l.18,0c-.34.29-.24.67-.19,1-.38.08-.8-.15-1.07.25a6.73,6.73,0,0,0-1.55-.14c.42-.43.8-.89,1.54-.68C87.26,81.61,87.48,81,87.91,81Z"/>
      <path class="cls-32" d="M66.39,74.71,72,75.92a4.74,4.74,0,0,1,.65.16c.85.3.92.66.28,1.42a1.47,1.47,0,0,1-1.21.12c-.78-.17-1.57-.32-2.34-.53a2,2,0,0,0-2.73,1.1c-.37.6-.89.46-1.41.2-1.17-.22-2-1.3-3.27-1.3-.33-1.21.57-1.91,1.18-2.7.16-.22.48-.1.72,0a2,2,0,0,0,1.4,0C65.78,74,65.92,74.79,66.39,74.71Z"/>
      <path class="cls-26" d="M61.47,74.63c.22.5,0,.9-.37,1.39-.09-.61.4-.94.37-1.39Z"/>
      <path class="cls-33" d="M65.19,78.39c.62.08,1.25.18,1.18-.79A.57.57,0,0,1,66.8,77c.41-.13.88-.13,1.11-.62.08-.17.36-.12.53,0a26.31,26.31,0,0,0,4.44,1.14c0,.12,0,.25.08.37.42,1.4-.21,2.16-1.61,1.84s-2.63-.39-3.94-.64C66.68,78.82,65.83,78.94,65.19,78.39Z"/>
    </g>
    <g>
      <path class="cls-34" d="M95.15,31.39l.13.26a.6.6,0,0,1-.08.08.67.67,0,0,1-.63-.06,3.61,3.61,0,0,0-.72-.57c-.09-.05-.16-.13-.25-.18a6.24,6.24,0,0,0-1.16-.57c-.37-.14-.69-.36-.49-.85.21-.14.3.11.46.14s.21,0,.25.14l1.59.94c.12.11.31.11.38.29Z"/>
      <path class="cls-35" d="M106.89,44.53l-.21.13a16,16,0,0,1-1-1.5c-.3-.36-.57-.73-.84-1.1s-.67-.48-.1-.82c.11,0,.21,0,.22.17l.09.13A8.34,8.34,0,0,1,106.85,44Z"/>
      <path class="cls-36" d="M97.32,33a4,4,0,0,0,.91.79c.13.14.26.28.06.47-.71-.1-1-.79-1.51-1.13a.48.48,0,0,1,0-.33l.07-.08Z"/>
      <path class="cls-36" d="M95.28,31.65a3.06,3.06,0,0,1,1.53,1.09l0,0a.45.45,0,0,1-.41,0,7.16,7.16,0,0,1-1-.75.33.33,0,0,1-.14-.37Z"/>
      <path class="cls-37" d="M106.5,44.8l-.29.1c-.27.11-.58.1-.81.29h0a2.81,2.81,0,0,1-1.11.17,10.16,10.16,0,0,0-2.26-.87,1.43,1.43,0,0,1-.78-.38c-.23-.2-.4-.44-.06-.71a3,3,0,0,1,1.48.22,4.3,4.3,0,0,0,2.25,0c.21.07.51.38.48-.18.07-.23.17-.41.44-.43a3,3,0,0,1,.83,1.63Z"/>
      <path class="cls-38" d="M90.75,28.94c.2.2.55.15.72.41a.84.84,0,0,1-1,0A5.37,5.37,0,0,0,89.36,29a2.85,2.85,0,0,1-.5-.14,9.63,9.63,0,0,0-2.18-.59l-.62-.13c-.33-.1-.69-.09-1-.22-1-.14-2-.36-3-.58-.21,0-.44,0-.6-.21a.17.17,0,0,1,0-.24c.7-.12,1.34.29,2,.25a12,12,0,0,0,2.58.49,5.77,5.77,0,0,0,1.68.43Z"/>
      <path class="cls-39" d="M81.44,26.86l0,.15c-.35.31-.76,0-1.13.09a4.91,4.91,0,0,1-.67-.09c-.5,0-1-.16-1.47-.07a10.59,10.59,0,0,0-1.38,0h-.21a9.58,9.58,0,0,0-1.07,0,1.32,1.32,0,0,1-.33-.08.41.41,0,0,1-.22-.26l.55-.13c.17-.22.37-.11.57-.05a24.37,24.37,0,0,0,3,0,5.9,5.9,0,0,1,.94,0,5.06,5.06,0,0,1,.93.23Z"/>
      <path class="cls-40" d="M74.93,26.63l.32.12c.1.09.16.2,0,.3a3.36,3.36,0,0,1-2.12.24A.58.58,0,0,1,73,27a.27.27,0,0,1,0-.23l1-.19a.37.37,0,0,1,.26-.15,1,1,0,0,1,.59.1Z"/>
      <path class="cls-41" d="M80.88,26.72l-1-.15a.61.61,0,0,1-.56-.16A2.19,2.19,0,0,1,80.88,26.72Z"/>
      <path class="cls-42" d="M58.33,33.43c.3-.51.93-.62,1.28-1.06.2-.13.29-.4.55-.47l.05,0c.23.08.18.27.17.44-.1.42-.44.74-.47,1.19,0,.16.13.3.16.47a.5.5,0,0,1-.41.64.52.52,0,0,1-.67-.35c-.11-.27,0-.75-.57-.68C58.32,33.61,58.24,33.55,58.33,33.43Z"/>
      <path class="cls-43" d="M58.33,33.43l.12.18A7.28,7.28,0,0,1,59.22,35l-.07.07-.76-.5a.18.18,0,0,1-.09-.15l-.19-.68C58.21,33.68,58.16,33.48,58.33,33.43Z"/>
      <path class="cls-44" d="M64.56,36.28l-.64.16A6.25,6.25,0,0,1,61,36.1c-.44-.18-1,0-1.32-.57l-.51-.42,0,0a1,1,0,0,1,1.18.07c.13.13.16.19.35.21,1,.08,2,.49,3,.54C64,35.91,64.38,35.91,64.56,36.28Z"/>
      <path class="cls-45" d="M96.37,32.65l.39.13.12.28c.05.19.2.34.2.54a.62.62,0,0,0,.28.62,1.75,1.75,0,0,1,.52,2.17c-.23.8-.36,1.63-.56,2.45-.06.26-.07.59-.44.65-.34-.16-.34-.46-.26-.75.23-.76.21-1.57.49-2.33a1,1,0,0,0-.47-1.29c-.31-.18-.57-.44-.89-.61a2.27,2.27,0,0,1-1.34-1.92c-.09-.67-.79-.92-1-1.48,0-.33.25-.3.45-.34l.12.16c.14.27.52.27.61.58l.68.16.27.21C95.62,32.34,95.82,32.69,96.37,32.65Z"/>
      <path class="cls-46" d="M93.81,30.77c-.13.11-.33.15-.37.35-.57.27-1-.09-1.39-.37a1.42,1.42,0,0,1-.37-.64c.15-.18-.26-.52.18-.61l.14.07c0,.31.17.55.53.58C93.05,30.17,93.39,30.55,93.81,30.77Z"/>
      <path class="cls-46" d="M94.54,31.51c-.19-.2-.55-.23-.61-.58C94.17,31.09,94.53,31.12,94.54,31.51Z"/>
      <path class="cls-47" d="M89.35,28.75l2.12.6a.14.14,0,0,1,.11,0c-.21.48-.63.16-1,.24a2.27,2.27,0,0,1-.84-.13c-.33-.13-.74,0-1-.27C88.68,28.75,89.12,28.88,89.35,28.75Z"/>
      <path class="cls-48" d="M89.69,29.27a5.23,5.23,0,0,0,1.89.13l.28.1-.11.51c-.54.32-1-.3-1.45-.21C90,29.73,89.66,29.71,89.69,29.27Z"/>
      <path class="cls-49" d="M96.93,33.52l-.05-.46c.6.24.88.92,1.52,1.1.21-.09.29.11.41.21a.53.53,0,0,0,0,.13,2.49,2.49,0,0,0,.62.59h0c.22.27.5.48.71.77l.23.07c.37.33.77.61,1.12.95a5.26,5.26,0,0,0,.71.78c.1.12.19.26.3.39.66.94,1.48,1.78,2.05,2.79l.21.45c-.29.39.26.43.29.68s-.14.46-.38.22a2.1,2.1,0,0,1-.55-.78c0,.38.69.54.4,1-.15.24-.43,0-.64-.07a1.94,1.94,0,0,1-.65-.9,1.07,1.07,0,0,0-.4-.62,5.48,5.48,0,0,0-.76-1c-.39-.42-1.15-.6-.92-1.42A2.26,2.26,0,0,0,100,36.84a2.59,2.59,0,0,0-1.4-.49,5.69,5.69,0,0,0-.51,1.93c-.11.46-.12,1-.67,1.18a.25.25,0,0,1-.18-.11,20.5,20.5,0,0,1,.62-3.1,3.36,3.36,0,0,0,.09-.7c0-.56,0-1-.69-1.21C96.9,34.25,97,33.82,96.93,33.52Z"/>
      <path class="cls-50" d="M100.13,35.85a1.31,1.31,0,0,1-.71-.77A1.38,1.38,0,0,1,100.13,35.85Z"/>
      <path class="cls-50" d="M99.42,35.09a.66.66,0,0,1-.62-.59A1.19,1.19,0,0,1,99.42,35.09Z"/>
      <path class="cls-51" d="M69.32,27.34l.58,0a.18.18,0,0,1,0,.19,6.93,6.93,0,0,1-2,.73,1.93,1.93,0,0,1-.62.23,6.16,6.16,0,0,0-2.15,1.09,1.37,1.37,0,0,1-1.39.37.34.34,0,0,1-.11-.18c.06-.48.52-.44.8-.62l.18-.1a7.13,7.13,0,0,1,1.51-.7h0a2.22,2.22,0,0,1,1-.52l.1,0h.12c.62-.09,1.14-.52,1.79-.48A.11.11,0,0,0,69.32,27.34Z"/>
      <path class="cls-52" d="M104,42.17c.16,0,.3.26.44.13s0-.28-.15-.39a1.92,1.92,0,0,1-.47-1c.18.16.68-.22.57.49A.5.5,0,0,0,105,42l.81,1.07a1,1,0,0,0-.27.54c-.14.12-.27.26-.48.19a3.38,3.38,0,0,1-2.63,0l-1.33-.29a.71.71,0,0,1-.73,0,.51.51,0,0,1-.28-.24c.13-.43.49-.31.77-.27.66.09,1.31.28,2,.4.89.17,1,.1.92-.79a1,1,0,0,1,0-.29A.43.43,0,0,1,104,42.17Z"/>
      <path class="cls-53" d="M96.37,32.65c0,.16.32.31.11.49s-.28-.1-.39-.2c-.29-.29-1-.39-.6-1.06A3.84,3.84,0,0,1,96.37,32.65Z"/>
      <path class="cls-54" d="M100.44,43.34l.7.15c.17.77.88.84,1.39.85.79,0,1.2.61,1.8.88a.22.22,0,0,1,0,.17.14.14,0,0,1-.14.09h0a5.7,5.7,0,0,1-4.09-.54.46.46,0,0,1-.14-.22l-.42-.35a.41.41,0,0,1,0-.19A2.24,2.24,0,0,1,100.44,43.34Z"/>
      <path class="cls-55" d="M95.08,44.53l0,0,0,0a5.61,5.61,0,0,1-1.87.17h-.26c-1.31-.24-2.6-.56-3.91-.83l-1-.23a4.19,4.19,0,0,1-1.07-.4c-.18-.07-.35-.17-.26-.42a2.87,2.87,0,0,1,2.15.25c.85.28,1.72.42,2.58.65.51.14.93-.17,1.4-.19.76.18,1.58-.14,2.33.27.16.09.34-.14.53-.18s.55-.09.52.34c-.11.22-.37.29-.53.46S95.24,44.49,95.08,44.53Z"/>
      <path class="cls-55" d="M99.65,44.21l0,.15a3,3,0,0,1-1.35-1.12c-.16-.19-.28-.41-.57-.2s-.25.51-.61.32c-.38-.74.3-.68.66-.86a.74.74,0,0,1,.62.19A17,17,0,0,0,99.57,44Z"/>
      <path class="cls-56" d="M97.16,43.36l.53-.32c-.39.74-1.14,1-1.81,1.33-.13.18-.27.07-.41,0,0-.29.3-.31.51-.37C96.35,43.75,96.65,43.35,97.16,43.36Z"/>
      <path class="cls-57" d="M104.3,45.37l0-.15a2.08,2.08,0,0,1,1.08,0c-.11.11-.3.13-.33.32C104.84,45.37,104.53,45.64,104.3,45.37Z"/>
      <path class="cls-57" d="M105.4,45.19a.76.76,0,0,1,.81-.29A1.22,1.22,0,0,1,105.4,45.19Z"/>
      <path class="cls-58" d="M105.1,43.76a.45.45,0,0,1,.48-.19.92.92,0,0,1,0,.28c0,.26-.15.52-.43.46S105.09,44,105.1,43.76Z"/>
      <path class="cls-40" d="M70.72,27.13l1.35-.22a.29.29,0,0,1,.3,0,.23.23,0,0,1,0,.2c-.16.16-.39.15-.58.21a3,3,0,0,1-.73.09C70.89,27.4,70.7,27.38,70.72,27.13Z"/>
      <path class="cls-59" d="M70.72,27.13l.38.18c0,.38-.3.37-.59.32a.59.59,0,0,1-.38-.39.5.5,0,0,1,0-.12c0-.06.07-.06.1,0Z"/>
      <path class="cls-60" d="M72.36,27l-.29-.09a1.06,1.06,0,0,1,.9-.11V27l-.07.07a.54.54,0,0,1-.37.08A.31.31,0,0,1,72.36,27Z"/>
      <path class="cls-61" d="M70.13,27.24c.14,0,.28.07.35.22a.34.34,0,0,1-.46.17.29.29,0,0,1-.14-.15l0-.16Z"/>
      <path class="cls-62" d="M73.55,26.36c.2.15.57-.13.67.26H74C73.81,26.54,73.63,26.54,73.55,26.36Z"/>
      <path class="cls-63" d="M80.24,26.9c.41-.15.78.1,1.17.11a27.62,27.62,0,0,1,3.72.67c.15.55-.52.36-.61.69s-.19.46-.23.72a1.06,1.06,0,0,1-.62.95,4.76,4.76,0,0,1-1.91-.3c-.69-.2-.83-.58-.53-1.21.1-.22.28-.4.26-.66,0-.41-.3-.5-.6-.59S80.35,27.22,80.24,26.9Z"/>
      <path class="cls-64" d="M89.35,28.75c-.13.22-.48.19-.55.47a4.73,4.73,0,0,1-2.44-.29c-.25-.07-.35.08-.43.28A3.28,3.28,0,0,0,85.27,31c-.16,1.18-.47,2.34-.74,3.51-.07.29-.14.62-.53.69-.38-.32-.3-.74-.23-1.14.15-.85.36-1.7.54-2.54a2.07,2.07,0,0,0,0-1.41.69.69,0,0,1,.28-.83,6.75,6.75,0,0,0,.71-.81c.69-.37,1.32.08,1.93.06-.51-.2-1.24,0-1.78-.48.26-.26.49,0,.68-.13l.57.13c.71.36,1.54.27,2.24.63Z"/>
      <path class="cls-47" d="M86.12,27.9l-.52.15,2,.43c-.74.09-1.45-.07-2.17,0a.67.67,0,0,1-1-.22c0-.51.62-.22.72-.59Z"/>
      <path class="cls-47" d="M88.93,28.66A8,8,0,0,1,86.69,28,7.64,7.64,0,0,1,88.93,28.66Z"/>
      <path class="cls-65" d="M70,27.52l.46-.06a.51.51,0,0,0,.62-.15l.63-.16c.2.06.41.23.6,0l0-.13a.32.32,0,0,1,.14,0c.15,0,.32.1.46-.05h0a1.16,1.16,0,0,0,1.4.05c.3-.23.74.27.89-.26l.27,0a1.19,1.19,0,0,0,1,.08c.09,0,.18.06.27,0a.26.26,0,0,1-.11-.16,4.09,4.09,0,0,1,1.48,0l.1,0c.52.18,1.16.06,1.57.6.11.15.31.06.48,0s.39-.08.48.17a2.29,2.29,0,0,1-2.26,1.63A12.21,12.21,0,0,1,77.11,29a25.31,25.31,0,0,1,3.84.92c1,.19,1.11.36,1,1.38-.06.58.34.74.7,1,.18.11.44,0,.6.22a4.87,4.87,0,0,1-.4,2.69,1.81,1.81,0,0,0-.77,1.16,1.25,1.25,0,0,1-.41.66c-.58.61-1.19,1.19-1.81,1.75a1.6,1.6,0,0,1-1.18.43c-.71,0-1.29.44-2,.5a3.53,3.53,0,0,1-2.59-.6,1.3,1.3,0,0,0-.59-.23,17.68,17.68,0,0,1-2.14-.55,2.6,2.6,0,0,1-1.05-1c-.12-.26-.38-.35-.61-.49a1.86,1.86,0,0,1-1-2.09c0-.23.14-.47.35-.52.67-.15,1.07-.83,1.8-.86.33,0,.64-.85.56-1.3s-.48-.48-.79-.45c-.9.11-1.55,0-1.58-1.13,0-.11-.19-.14-.27-.22a.46.46,0,0,1-.13-.18c-.13-.31,0-.59.08-.88C68.91,28.4,69.57,28.05,70,27.52Z"/>
      <path class="cls-65" d="M80.24,26.9a4,4,0,0,1,1.34.46c.11.08.28.14.13.32a.63.63,0,0,1-.79,0c-.12-.2-.25-.37-.54-.33a1,1,0,0,1-.73-.15c-.12-.11-.2-.23-.11-.39Z"/>
      <path class="cls-66" d="M76.72,26.74c.28.1.61.06.88.29-.39.42-.73,0-1.09,0-.12.05-.25.05-.26-.11s.23-.09.33-.18Z"/>
      <path class="cls-40" d="M76.58,26.71c0,.11-.42.11-.06.29-.42.34-.75.26-1-.21A2.71,2.71,0,0,1,76.58,26.71Z"/>
      <path class="cls-63" d="M79.54,26.79l.08.29a3.09,3.09,0,0,1-1.41-.31h0A5,5,0,0,1,79.54,26.79Z"/>
      <path class="cls-67" d="M63.71,29.85c.45-.11.95-.08,1.3-.46.41-.14.52.09.52.43s-.16.4-.17.62c-.13.52-.72.42-1,.76a15.09,15.09,0,0,1-3.65,2.56c.11.25.29.15.43.15A1.27,1.27,0,0,1,62,34c1,.81,2,.39,3.07.22a1,1,0,0,1,1,.28l.13.14c.09.12.25.13.39.18a.35.35,0,0,1,.14.13.44.44,0,0,1-.19.61.7.7,0,0,1-.19.06c-.39-.07-.65.19-.93.38a.69.69,0,0,1-.2,0,1.47,1.47,0,0,0-.69-.14,10.51,10.51,0,0,1-4.24-.9c-.29-.15-.45-.25-.32-.58s-.06-.64-.32-.88c0-.51.4-.79.57-1.21.33-.11.18-.47.36-.67a1.77,1.77,0,0,1,1-.65l.29-.26.62-.28a5.44,5.44,0,0,0,1.13-.63Z"/>
      <path class="cls-68" d="M62.5,30.62c-.21.06-.39.24-.63.16.1-.27.42-.22.57-.42.46-.17.79-.59,1.29-.68l0,.17h0A3.57,3.57,0,0,1,62.5,30.62Z"/>
      <path class="cls-69" d="M60.63,31.75c0,.3.2.74-.42.61v-.42l.29-.26C60.6,31.61,60.64,31.63,60.63,31.75Z"/>
      <path class="cls-70" d="M59.64,33.57a.51.51,0,0,1,.43.7c-.12.5.15.58.54.72a14,14,0,0,0,3.85.68,2,2,0,0,1,.35.07c.11.08.19.17.14.32s-.28.12-.4.23h0a23,23,0,0,1-3.6-.66c-.21,0-.66.16-.63-.39,0-.15-.18-.08-.29,0a1.39,1.39,0,0,1-.85-.11c-.27-.48-.95-.75-.74-1.47.13-.16.38-.43.41,0s.82.34.33.84c0,0,.2.16.35.12s.42-.09.36-.35A3.51,3.51,0,0,0,59.64,33.57Z"/>
      <path class="cls-71" d="M68.14,38.23a7.7,7.7,0,0,1-1.39-1.78.13.13,0,0,1,0-.18.65.65,0,0,1,.68.32c.5.59,1,1.21,1.42,1.83a.2.2,0,0,1-.12.17C68.44,38.67,68.31,38.41,68.14,38.23Z"/>
      <path class="cls-72" d="M64.55,36.29a.52.52,0,0,1,.34-.24.35.35,0,0,1,.32-.08h.14a2.19,2.19,0,0,1,1-.5l.14,0a.36.36,0,0,1,.32,0,.44.44,0,0,1,.09.61.23.23,0,0,1-.17.1c-.24,0-.3-.27-.48-.36A4,4,0,0,1,64.55,36.29Z"/>
      <path class="cls-65" d="M86.25,28.67c.78.08,1.5.52,2.32.3.05,0,.16.17.23.25.29.23.61-.38.89.05.15.26.44.22.68.3s.57,0,.54.42a.83.83,0,0,0-.28.83.49.49,0,0,1-.34.58c-.22.08-.49.07-.59-.12-.39-.73-.86-.41-1.39-.14a1.25,1.25,0,0,0,.89.55c1.49.38,3,.66,4.51,1,.4.09.64-.14.93-.28a2.47,2.47,0,0,0,1.53,2c.49.28,1.31.47,1.31,1.34a2.11,2.11,0,0,1-.09.7,12.75,12.75,0,0,0-.56,2.93A4.45,4.45,0,0,1,96,42.07a3.72,3.72,0,0,1-3,.9.84.84,0,0,0-.6.16,12.55,12.55,0,0,1-4-.53c-.86-.28-1.55-.94-2.44-1.18a.61.61,0,0,1-.35-.44,11.76,11.76,0,0,1,0-2.14c0-.12,0-.3-.09-.33-.68-.18-.8-.9-1.28-1.27a1.79,1.79,0,0,1-.3-2l.1-.05a.58.58,0,0,0,.24-.43A26.73,26.73,0,0,0,85,30a.45.45,0,0,1,.3-.44.9.9,0,0,0,.43-.71C85.9,28.73,86.12,28.8,86.25,28.67Z"/>
      <path class="cls-73" d="M94.64,32.42c0,.58-.32.7-.87.57-1.48-.36-3-.65-4.45-1a6.79,6.79,0,0,1-1.14-.42c-.28-.13-.24-.38-.19-.63s.2-.35.46-.21.35,0,.5-.17c.35-.39.65-.46.71.2,0,.25.09.42.34.48a.38.38,0,0,0,.4-.12c.17-.23,0-.37-.12-.57-.28-.62.23-.55.59-.59s.83.33,1.21.56a5,5,0,0,0,1.36.59A2.17,2.17,0,0,1,94.64,32.42Z"/>
      <path class="cls-74" d="M95.82,42c.68-.74.51-1.8,1-2.61a.88.88,0,0,0,.3-.71c.14-1.18.74-2.28.63-3.51a.82.82,0,0,0-.46-.74c-.37-.19-.73-.45-.37-.95.1.14.52.13.19.5-.09.09.21.33.44.37.45.08.54.32.52.76a35.58,35.58,0,0,1-.79,4.24,14.52,14.52,0,0,1-.81,2.41A.47.47,0,0,1,95.82,42Z"/>
      <path class="cls-47" d="M92.08,30.53c-.48,0-.81-.37-1.21-.56l-.5-.4c.5,0,.9.35,1.38.44Z"/>
      <path class="cls-75" d="M101.37,38.34a.65.65,0,0,0,.4.91c.21.1.44.2.49.47-.23.41-.09,1-.6,1.28a.59.59,0,0,1-.64-.38c-.18-.71-.77-.74-1.31-.88a5.9,5.9,0,0,1-1.26-.19,2.13,2.13,0,0,1,.49-2.6,1.35,1.35,0,0,1,.8-.27c.28,0,.45,0,.6.32C100.55,37.52,101.06,37.86,101.37,38.34Z"/>
      <path class="cls-76" d="M95.82,42a.94.94,0,0,0,.74-.87,2.72,2.72,0,0,1,.73-1.78l.14,0a4.65,4.65,0,0,1-1.22,3c-.12.07-.27.1-.38.18s-.37.09-.29.34.26.17.43.17.37,0,.37-.27a.7.7,0,0,1,.4-.5c.39-.05.78-.11,1,.3-.08.35-.92.09-.61.75A1.88,1.88,0,0,1,96,44a.42.42,0,0,0-.67,0c-.11.11-.14.24-.31.12-.63-.48-1.4-.16-2.09-.36,0-.39-.52-.48-.55-.86a.53.53,0,0,1,.59-.17A4.36,4.36,0,0,0,95.82,42Z"/>
      <path class="cls-77" d="M96.78,42.39l-.27.54c-.18.09-.4.13-.51.33-.17,0-.34.11-.49,0s-.49-.12-.51-.35.28-.38.49-.44a1.67,1.67,0,0,0,1.32-1.61c0-.56.57-.89.62-1.44a8.43,8.43,0,0,0,.7-3c0-.22,0-.49.28-.51s.16.23.15.38a.63.63,0,0,1,.14.68,8.07,8.07,0,0,0-.35,2.33,16.56,16.56,0,0,1-.87,2.48A1,1,0,0,1,96.78,42.39Z"/>
      <path class="cls-63" d="M101.7,40.94a5.85,5.85,0,0,0,.14-.92c0-.34.18-.35.42-.3a1.45,1.45,0,0,1,.67,1c.15.19.32.36.47.55a2.25,2.25,0,0,0,.56.86l0,.14a3.06,3.06,0,0,1-2.25-.55C101.46,41.49,101.38,41.2,101.7,40.94Z"/>
      <path class="cls-78" d="M98.2,39.29l.36-3c.24-.21.48-.6.68,0a.28.28,0,0,0,.23.14c1-.06,1.14,1,1.81,1.38.19.11.13.34.09.53-.65-.17-.88-.77-1.17-1.26-.14-.24-.17-.29-.44-.23a1.38,1.38,0,0,0-1.24,1.49c0,.39,0,.77-.07,1.15A1.66,1.66,0,0,1,98,41.16c-.37,0-.25-.24-.21-.45A14.4,14.4,0,0,0,98.2,39.29Z"/>
      <path class="cls-52" d="M103.4,41.31c-.25-.11-.49-.22-.47-.55C103.26,40.79,103.35,41,103.4,41.31Z"/>
      <path class="cls-79" d="M66.8,36.32a.38.38,0,0,1,0-.15,1,1,0,0,0,0-.6c-.1-.2,0-.45-.16-.63h0c-.13-.3-.44.21-.56-.12h0a13.14,13.14,0,0,1,.44-3.06,4.52,4.52,0,0,0,.69-1.7A1.23,1.23,0,0,0,67,28.93c-.08-.34.12-.51.37-.66.23.1.26-.3.49-.2.75-.09.76.65,1.12,1l-.21,1c.16.26,0,.5,0,.76a4.81,4.81,0,0,0-.27,2.33c.11.75,0,1.52.06,2.29a2.12,2.12,0,0,0,1.38,1.94,9.31,9.31,0,0,1,1.43.67l2.41.52a2.65,2.65,0,0,1,.63.57c.18.21.21.43-.09.58a1.42,1.42,0,0,1-.71-.08,13.71,13.71,0,0,0-3.86-.77.85.85,0,0,1-.83-.46c-.9-.33-1.08-1.34-1.76-1.87A2.92,2.92,0,0,0,66.8,36.32Z"/>
      <path class="cls-80" d="M67.33,28.27l-.29.67c0,.08,0,.17,0,.22a4.44,4.44,0,0,1-1.8,1.32c-.15-.2,0-.35.06-.52s.07-.5-.27-.57A5.18,5.18,0,0,1,67.33,28.27Z"/>
      <path class="cls-81" d="M68.94,29.06c-.2.1-.54.32-.5-.09s-.3-.68-.62-.9a8.67,8.67,0,0,1,2.06-.59l.14,0c.07.42-.25.63-.51.85A1.74,1.74,0,0,0,68.94,29.06Z"/>
      <path class="cls-82" d="M97.94,41.16a9.75,9.75,0,0,1,.51-1.67,4.59,4.59,0,0,1,2.46.25.28.28,0,0,1,.22.33c-.13.51.27.65.57.87-.13.55.11.78.64.89s1.06.32,1.58.48a3.93,3.93,0,0,1,.2.54c.17.7-.18,1.08-.89.94s-1.54-.33-2.31-.49c-.26-.06-.51-.18-.77,0-.56-.18-.91-.67-1.41-.94-.15-.19-.39-.23-.6-.34S97.58,41.54,97.94,41.16Z"/>
      <path class="cls-37" d="M98.89,42.26a1.86,1.86,0,0,1,1.26,1l.29.07c-.18.37-.3.78-.79.87l-.14,0c-.31-.43-.58-.9-.93-1.31a1.84,1.84,0,0,0-.17-.22c-.2-.21-.72-.38-.46-.67S98.66,41.86,98.89,42.26Z"/>
      <path class="cls-79" d="M84,41.24a5.45,5.45,0,0,1-1.21-3.35c0-.14.08-.36-.12-.43s-.28.12-.34.27-.17.22-.23.35a8.52,8.52,0,0,1-.71,1,4.32,4.32,0,0,1-1.77,1.21c-.16.22-.41.12-.61.18s-.51.09-.73-.11c-.16-.39.14-.44.4-.5a1.62,1.62,0,0,0,1-.57c0-.24,0-.51.14-.73.56-.58,1.12-1.17,1.69-1.75a1.19,1.19,0,0,0,.45-1c0-.42.37-.51.67-.65s.57-.19.65.25c-.05.27-.09.48.21.68a.86.86,0,0,1,.38,1.17c-.12.29,0,.68-.12.92-.28.51.18.19.26.28a.51.51,0,0,1,.3.29,6.14,6.14,0,0,0,1.39,2.13.43.43,0,0,0,.25.33c1.81.67,3.48,1.83,5.54,1.59.33,0,.57.28.89.13a1.69,1.69,0,0,0,.44.23c.61.12.42.36.11.63-1.55.59-3-.06-4.4-.5-.64-.19-1.31-.28-2-.42-.61.17-1-.22-1.45-.53A1.88,1.88,0,0,0,84.7,42c-.2-.13-.35-.33-.56-.46A.39.39,0,0,1,84,41.24Z"/>
      <path class="cls-83" d="M98.89,42.26A1,1,0,0,0,98,42c.25.32.74.36.79.81a.31.31,0,0,1-.46,0,1.09,1.09,0,0,0-.54-.26c-.31-.13-.69,0-1-.22a16.08,16.08,0,0,0,1.42-3.1c.22.34-.12.56-.17.84s-.27.67-.09,1c-.11.41.07.62.47.7C98.63,41.9,98.89,41.93,98.89,42.26Z"/>
      <path class="cls-54" d="M98.31,42.87l.46,0c.56.27.53.87.74,1.34A3.49,3.49,0,0,1,98.31,42.87Z"/>
      <path class="cls-84" d="M72.33,27.13c.31.29.06.34-.17.34s-.33-.15-.43-.32A1,1,0,0,1,72.33,27.13Z"/>
      <path class="cls-40" d="M73,27c-.12.33-.29.18-.46.05A.54.54,0,0,1,73,27Z"/>
      <path class="cls-85" d="M80.86,27.5l.85.18c.08.34.24.63-.2.92s-.29.74.21.86c.68.17,1.36.3,2,.45a2.83,2.83,0,0,1-.55,2.55c-.63.53-.93-.19-1.36-.38s-.23-.47-.18-.76c.18-.94.19-1-.78-1.13C79.39,30,78.15,29,76.64,28.85c.68.09,1.36.15,2,.26.46.07.83,0,.91-.52a.45.45,0,0,1,.49-.43c.49,0,.59-.31.64-.69C80.78,27.43,80.83,27.44,80.86,27.5Z"/>
      <path class="cls-86" d="M83.2,32.46c.18-.85.37-1.7.55-2.55A1.68,1.68,0,0,0,84,28.55c-.1-.35.16-.32.39-.28l1,.22a1.16,1.16,0,0,1-.64,1c-.3.16-.52.38-.11.7s.11.54.06.81A28.19,28.19,0,0,0,84,35.15h0c-.08.06-.09.15-.13.23s0,.47-.3.47-.31-.23-.37-.43-.33-.24-.54-.27c.48-.52.15-1.21.38-1.78A5.71,5.71,0,0,0,83.2,32.46Z"/>
      <path class="cls-63" d="M86.25,28.67c0,.48-.31.16-.48.19C85.85,28.61,86.05,28.62,86.25,28.67Z"/>
      <path class="cls-87" d="M68.87,30.09c.38-.06.5.12.49.49,0,.65.22.85.85.74.07,0,.14-.05.21-.06,1-.17,1.39.24,1.19,1.22-.12.63-.18,1.3-1.12,1.11a.33.33,0,0,0-.26.09c-.28.41-.58.75-1.15.65,0,0-.12.24-.18.37-.5.13-.69-.14-.6-.57a3.32,3.32,0,0,0-.11-1.47,3.48,3.48,0,0,1,.33-1.81A2.28,2.28,0,0,1,68.87,30.09Z"/>
      <path class="cls-88" d="M79.8,38.55l.13.77a.78.78,0,0,1-.48.15,1.16,1.16,0,0,0-1.51,1,4,4,0,0,1-1.85,0c-1.68-.34-3.35-.71-5-1.09-.27-.06-.59-.07-.76-.52a5.24,5.24,0,0,1,2.1.33,8.13,8.13,0,0,0,2,.4c0-.46-.45-.69-.67-1,.51.12.79.6,1.3.74a4.56,4.56,0,0,0,2.71-.15,2,2,0,0,1,1-.21C79.14,39,79.44,38.72,79.8,38.55Z"/>
      <path class="cls-89" d="M68.87,30.09c-.13.35-.28.71-.38,1.07a2.74,2.74,0,0,0,0,2,1.16,1.16,0,0,1,0,.84.48.48,0,0,0,.44.67A1.67,1.67,0,0,0,70,36.63c.31.13.58.27.59.71s.54.36.66.7a8.22,8.22,0,0,1-1.93-.57,2.64,2.64,0,0,1-1.18-1.87,27.07,27.07,0,0,0-.07-3,3.75,3.75,0,0,1,.39-2c.07-.2.15-.4.23-.61Z"/>
      <path class="cls-90" d="M80.86,27.5l-.14,0c-.5.36-.91.57-1.31-.21-.19-.36-.88-.1-1.2-.49l1.41.31C80.06,27.15,80.63,26.83,80.86,27.5Z"/>
      <path class="cls-32" d="M66.73,31.7c-.26,1-.11,2.15-.68,3.12A.76.76,0,0,0,65,34.54c-.68.36-1.47,0-2.17.29-.09.05-.32,0-.39-.15a1.19,1.19,0,0,0-1.51-.46.45.45,0,0,1-.61-.35c-.07-.27.17-.36.39-.43A11.25,11.25,0,0,0,64.21,31a6.26,6.26,0,0,0,2.44-1.23c.19-.16.39-.34.63-.19s0,.35,0,.53A3.81,3.81,0,0,1,66.73,31.7Z"/>
      <path class="cls-91" d="M66.73,31.7a8.66,8.66,0,0,0,.49-1.57c0-.15.17-.36-.08-.43s-.26.09-.32.24a.82.82,0,0,1-.94.59,1.24,1.24,0,0,0-.78.33.9.9,0,0,1-.89.14c.25-.34.76-.18,1-.52A11.68,11.68,0,0,1,67,28.94c.26-.07.55,0,.48.3A4.29,4.29,0,0,1,66.73,31.7Z"/>
      <path class="cls-92" d="M66.06,34.82c.46,0,.28-.5.58-.68.2.28,0,.54,0,.8C66.43,34.92,66.14,35.37,66.06,34.82Z"/>
      <path class="cls-92" d="M66.36,35.48a2.1,2.1,0,0,1-1,.5A.79.79,0,0,1,66.36,35.48Z"/>
      <path class="cls-51" d="M62.5,30.62a5.08,5.08,0,0,1,1.21-.77A1.45,1.45,0,0,1,62.5,30.62Z"/>
      <path class="cls-92" d="M66.62,34.94c.34.14.2.4.16.63l-.28-.07C66.67,35.35,66.59,35.13,66.62,34.94Z"/>
      <path class="cls-44" d="M65.21,36l-.32.08-.08-.31C65,35.68,65.17,35.74,65.21,36Z"/>
      <path class="cls-93" d="M85.68,40.87c-1.17-.32-1.24-1.48-1.73-2.31a.94.94,0,0,1,.31-1.41c.16,0,.43-.1.44.09,0,.63.34.87.91,1,.25.05.26.31.22.54-.08.51-.32,1,.06,1.52C86,40.45,85.73,40.66,85.68,40.87Z"/>
      <path class="cls-94" d="M84.26,37.15A3.45,3.45,0,0,0,84,38.56c-.15-.05-.51.27-.4-.25s-.18-1,.23-1.51c.18-.23-.28-.44-.5-.58-.38-.24-.57-.46-.13-.8.49.57.58-.05.8-.27A2.6,2.6,0,0,0,84.26,37.15Z"/>
      <path class="cls-55" d="M96,43.26c0-.2-.29-.4-.06-.58s.35.24.57.25c-.07.21.28.41.07.57S96.23,43.25,96,43.26Z"/>
      <path class="cls-92" d="M67.19,35.67c0-.05,0-.11,0-.17s.09-.17.19-.11,0,.13,0,.2S67.31,35.72,67.19,35.67Z"/>
      <path class="cls-95" d="M82,38c.07-.1.13-.2.19-.3s.2-.71.56-.56.06.5,0,.76c-.39-.77-.36.2-.59.14C82.08,38.11,82,38.09,82,38Z"/>
      <path class="cls-96" d="M82,38l.15,0a2,2,0,0,1-.81,1C81.41,38.62,81.8,38.37,82,38Z"/>
      <path class="cls-97" d="M78.23,40.29,78,40.23c0-.95,0-1,1-1a4.2,4.2,0,0,1,1,.11,1.44,1.44,0,0,1-1.29.76C78.45,40.07,78.31,40.1,78.23,40.29Z"/>
    </g>
    <path class="cls-98" d="M115.29,43.47C109.93,16.29,96.87,17.8,96.87,17.8L87,18.08s-2.94-.36-10.37-4C65.45,9,54.92,19,45.57,32.93c-1,2.74-7.72,10.53-7.72,10.53l1.73,18.35s0,26.41,29.24,33.32,40-18.54,40-18.54,5.67-10.12,9.74-15.69A41.31,41.31,0,0,1,115.29,43.47Zm-15,30.08s-8,12.17-27.64,8.31S47.72,63.14,47.72,63.14s-.6-13.43-5.77-19c0,0,9.4-2.35,15.58-9.19,5-5.55,32.39-19.93,48.68,10.59,3,10.68,8.23,14.58,8.23,14.58Z"/>
  </g>
</svg>
