<svg id="Capa_1" data-name="Capa 1" xmlns="http://www.w3.org/2000/svg" viewBox="0 0 128.21 104.25">
  <defs>
    <style>
      .cls-1 {
        fill: #dfcdd9;
      }

      .cls-2 {
        fill: #dfcbd5;
      }

      .cls-3 {
        fill: #e1b9c8;
      }

      .cls-4 {
        fill: #e1cad5;
      }

      .cls-5 {
        fill: #e9dde7;
      }

      .cls-6 {
        fill: #e8dae2;
      }

      .cls-7 {
        fill: #ead8e2;
      }

      .cls-8 {
        fill: #e1d1dc;
      }

      .cls-9 {
        fill: #59444f;
      }

      .cls-10 {
        fill: #5a434f;
      }

      .cls-11 {
        fill: #e6d7e0;
      }

      .cls-12 {
        fill: #f3e5ec;
      }

      .cls-13 {
        fill: #f1e1ea;
      }

      .cls-14 {
        fill: #eac7d7;
      }

      .cls-15 {
        fill: #ebdde6;
      }

      .cls-16 {
        fill: #e8d9e1;
      }

      .cls-17 {
        fill: #e4e0e3;
      }

      .cls-18 {
        fill: #e5e2e6;
      }

      .cls-19 {
        fill: #f2e8ed;
      }

      .cls-20 {
        fill: #f3e8f0;
      }

      .cls-21 {
        fill: #eee3ec;
      }

      .cls-22 {
        fill: #ebe4eb;
      }

      .cls-23 {
        fill: #a4939d;
      }

      .cls-24 {
        fill: #e8dee6;
      }

      .cls-25 {
        fill: #e8dde5;
      }

      .cls-26 {
        fill: #f0e4ec;
      }

      .cls-27 {
        fill: #e9dfe5;
      }

      .cls-28 {
        fill: #ead4e1;
      }

      .cls-29 {
        fill: #a49aa2;
      }

      .cls-30 {
        fill: #ebe5e9;
      }

      .cls-31 {
        fill: #f3e9f1;
      }

      .cls-32 {
        fill: #f3e9ef;
      }

      .cls-33 {
        fill: #ecd5df;
      }

      .cls-34 {
        fill: #e7c7d5;
      }

      .cls-35 {
        fill: #ebc9d6;
      }

      .cls-36 {
        fill: #e7d9e2;
      }

      .cls-37 {
        fill: #e4c3cf;
      }

      .cls-38 {
        fill: #e5bcca;
      }

      .cls-39 {
        fill: #ecd8e2;
      }

      .cls-40 {
        fill: #902f4f;
      }

      .cls-41 {
        fill: #e8d4df;
      }

      .cls-42 {
        fill: #ded2da;
      }

      .cls-43 {
        fill: #e4d2de;
      }

      .cls-44 {
        fill: #f1e6ed;
      }

      .cls-45 {
        fill: #e9dce3;
      }

      .cls-46 {
        fill: #ebdbe2;
      }

      .cls-47 {
        fill: #e4d8dd;
      }

      .cls-48 {
        fill: #ebdde5;
      }

      .cls-49 {
        fill: #e6bbcd;
      }

      .cls-50 {
        fill: #ead2de;
      }

      .cls-51 {
        fill: #eddfe8;
      }

      .cls-52 {
        fill: #ebdfe5;
      }

      .cls-53 {
        fill: #e9d9e4;
      }

      .cls-54 {
        fill: #e7d7e0;
      }

      .cls-55 {
        fill: #e4cdda;
      }

      .cls-56 {
        fill: #e1c9d7;
      }

      .cls-57 {
        fill: #ebd5e0;
      }

      .cls-58 {
        fill: #e7d8df;
      }

      .cls-59 {
        fill: #dfa0b9;
      }

      .cls-60 {
        fill: #f7dee9;
      }

      .cls-61 {
        fill: #923653;
      }

      .cls-62 {
        fill: #f3e8ee;
      }

      .cls-63 {
        fill: #eee3ed;
      }

      .cls-64 {
        fill: #f3e9f0;
      }

      .cls-65 {
        fill: #ece7eb;
      }

      .cls-66 {
        fill: #ebdfe7;
      }

      .cls-67 {
        fill: #d5a6b7;
      }

      .cls-68 {
        fill: #dfd5d9;
      }

      .cls-69 {
        fill: #ebdbe6;
      }

      .cls-70 {
        fill: #e5cddc;
      }

      .cls-71 {
        fill: #dac9d5;
      }

      .cls-72 {
        fill: #f3e8f1;
      }

      .cls-73 {
        fill: #eee2eb;
      }

      .cls-74 {
        fill: #f4e7f0;
      }

      .cls-75 {
        fill: #e9dee7;
      }

      .cls-76 {
        fill: #e5dbe3;
      }

      .cls-77 {
        fill: #efe3eb;
      }

      .cls-78 {
        fill: #ebdee7;
      }

      .cls-79 {
        fill: #e9dde3;
      }

      .cls-80 {
        fill: #e8dce2;
      }

      .cls-81 {
        fill: #f4e9f1;
      }

      .cls-82 {
        fill: #e9dfe6;
      }

      .cls-83 {
        fill: #e8e2e8;
      }

      .cls-84 {
        fill: #f5e9f3;
      }

      .cls-85 {
        fill: #eadfe7;
      }

      .cls-86 {
        fill: #f6e9f2;
      }

      .cls-87 {
        fill: #eee1eb;
      }

      .cls-88 {
        fill: #f3e7f0;
      }

      .cls-89 {
        fill: #edebef;
      }

      .cls-90 {
        fill: #f0e5ec;
      }

      .cls-91 {
        fill: #e2d5de;
      }

      .cls-92 {
        fill: #f5e8f1;
      }

      .cls-93 {
        fill: #efe4ed;
      }

      .cls-94 {
        fill: #d6c6d1;
      }

      .cls-95 {
        fill: #d4bdca;
      }

      .cls-96 {
        fill: #e8dfe7;
      }

      .cls-97 {
        fill: #d9205a;
      }
    </style>
  </defs>
  <title>Mesa de trabajo 1</title>
  <g>
    <g>
      <path class="cls-1" d="M84.4,79.32l-.72.36c-.29.27-.74.18-1,.46a.86.86,0,0,1-1-.21,2.28,2.28,0,0,1,2.65-.75Z"/>
      <path class="cls-2" d="M82.77,78.33a4.81,4.81,0,0,1,2.7.64,1.52,1.52,0,0,1-1.07.35l0-.07c0-.08,0-.15-.05-.23C83.83,78.72,83.08,79,82.77,78.33Z"/>
      <path class="cls-3" d="M67.77,80.45l-.56-.16A.23.23,0,0,1,67.3,80a3.39,3.39,0,0,1,2.5.26.47.47,0,0,1,.16.27c-.33.58-.75-.07-1.12.08Z"/>
      <path class="cls-3" d="M75,80.78a1.41,1.41,0,0,0-1.14,0,.71.71,0,0,1-.62,0,1.3,1.3,0,0,0-.85,0c-.75.26-1.47-.09-2.2-.12l-.2-.12,0-.11a.27.27,0,0,1,.14-.25.89.89,0,0,1,.43-.08c.87-.08,1.74.12,2.61,0h.3c.61,0,1.22-.24,1.83,0a.64.64,0,0,1,.46.41Z"/>
      <path class="cls-4" d="M79.66,80.25a1,1,0,0,1-.09.15,7.58,7.58,0,0,0-1.78.18,4.64,4.64,0,0,1-1.74-.15v-.14a.5.5,0,0,1,.42-.29,7.62,7.62,0,0,0,1.17,0,.87.87,0,0,1,.28,0C78.5,80,79.18,79.56,79.66,80.25Z"/>
      <path class="cls-4" d="M75.67,80.58l-.6-.17c0-.19.15-.26.31-.3a.6.6,0,0,1,.67.32h0A.39.39,0,0,1,75.67,80.58Z"/>
      <path class="cls-5" d="M63.07,73.81l.33-.45A1.52,1.52,0,0,1,65,72.85a16.16,16.16,0,0,1,3.25.77,10,10,0,0,0,3,.65,3.45,3.45,0,0,1,2.16.58A3.68,3.68,0,0,1,76,76.46a.42.42,0,0,1,0,.43c0,.23.2.5-.15.64a11.59,11.59,0,0,0-1.43-.16c-1.06-.33-2.18-.44-3.22-.83-1.07-.55-2.32-.65-3.38-1.24-1.17-.32-2.3-.88-3.58-.63-.18,0-.48,0-.52-.12-.14-.43-.51-.27-.78-.36A.39.39,0,0,1,63.07,73.81Z"/>
      <path class="cls-6" d="M62.49,74.73l.39-.9.19,0-.06.44a.6.6,0,0,1,.15.54c-.46,1.09,0,2.22-.11,3.32-.16.21-.39.15-.6.18s-.6-.28-.25.26c.18.27,0,.37-.27.43-1-.24-2.12-.08-2.94-.9a.69.69,0,0,1,.3-.84c.64-.2,1-.83,1.62-1.1s.46-1.06.38-1.68a2.33,2.33,0,0,0-.2-.73c-.06-.37-.35-.56-.6-.78s-.54-.34-.45-.73a.35.35,0,0,1,.25-.06,2.34,2.34,0,0,1,1.62,2.64,2.8,2.8,0,0,1,.15.3s-.05.12.07.1,0,0,0-.09A4,4,0,0,1,62.49,74.73Z"/>
      <path class="cls-7" d="M60.29,72.16l-.2.09a2.07,2.07,0,0,1-1.67.1c-2.35-.33-4.65-.92-7-1.41-.75-.16-1.42-.33-1.77.69-.19.55-.73.53-1.22.27s-.52.52-.94.43a.29.29,0,0,1-.15-.22A2.68,2.68,0,0,1,48,70.79a2.26,2.26,0,0,1,1.37-.9,43.32,43.32,0,0,1,6.47,1.29A22.17,22.17,0,0,1,60.29,72.16Z"/>
      <path class="cls-8" d="M46.19,69.82l.36.42-.12.11c-.89.23-1.69-.22-2.54-.3a43.89,43.89,0,0,1-5.29-1.3.5.5,0,0,1-.41-.36c.2-.47.58-.39,1-.31l2.6.57,3.51.76C45.6,69.49,46,69.47,46.19,69.82Z"/>
      <path class="cls-1" d="M82.77,78.33l2,.46s.07,0,.08,0c.08.17-.06.13-.14.15a5.92,5.92,0,0,1-2.18-.08c-1.71-.37-3.42-.8-5.16-1l-.1-.13.54-.44a.38.38,0,0,1,.58-.09Z"/>
      <path class="cls-1" d="M75.9,77.45c.09-.17-.11-.4.1-.56.23.24.19.56.27.84a5,5,0,0,0,.06.94,3.21,3.21,0,0,0,0,.76.67.67,0,0,1,.22-.28c.37-.41-.05-1.21.71-1.42l.06.08a2.88,2.88,0,0,1-.77,2.34l-.46.28-.75-.15a16.34,16.34,0,0,0,.43-2.61A.62.62,0,0,1,75.9,77.45Z"/>
      <path class="cls-8" d="M46.55,70.24c.78.39.29,1.18.56,1.74a.86.86,0,0,1,.16.56,2.25,2.25,0,0,0,0,1.31.75.75,0,0,1-.31.7.65.65,0,0,1-.68-.33c-.06-1.32.14-2.62.17-3.93Z"/>
      <path class="cls-9" d="M47,72.54l.11-.56c.45-.28.29-1,.87-1.19a5.41,5.41,0,0,0-.49,1.47.38.38,0,0,1-.1.41A.32.32,0,0,1,47,72.54Z"/>
      <path class="cls-10" d="M76.41,78.76l-.2-.05a1.91,1.91,0,0,1,.06-1A1.9,1.9,0,0,1,76.41,78.76Z"/>
      <path class="cls-11" d="M44.61,73.67l-.52-.2-.92-.75c.17-.2.39-.16.61-.13s.6.32.67-.18c0-.35,0-.73-.38-.89a6.11,6.11,0,0,0-1.68-.38A15.62,15.62,0,0,0,40.22,71c-.73-.2-1.12-1-1.91-1.08-.38-.16-.88-.16-.86-.77l.11-.36.6-.31c1.52-.12,2.83.7,4.26,1a17.2,17.2,0,0,1,4.07.88c.67,1.31.21,2.61-.05,3.91-.6.17-1-.21-1.47-.49Z"/>
      <path class="cls-12" d="M40.22,71c0-.24,0-.46.38-.39,1.18.25,2.41.22,3.58.58.57.18,1,1.65.53,2.07-.17.17-.35.08-.51,0a1.71,1.71,0,0,0-1-.44A17,17,0,0,1,40.22,71Z"/>
      <path class="cls-13" d="M76.51,80.15a11.26,11.26,0,0,1,.77-2.34,3.8,3.8,0,0,1,2.24,0c1.7.45,3.43.77,5.14,1.15l-.29.28a6.74,6.74,0,0,0-2.68.66,6.36,6.36,0,0,1-2,.34c-.66-.26-1.32.12-2,0,0-.63.63-.47,1-.71-.23-.24-.5-.47-.78-.3s-.26.65-.26,1A1.15,1.15,0,0,1,76.51,80.15Z"/>
      <path class="cls-14" d="M45,73.71a3.33,3.33,0,0,1,1.47.49l.54.31a1.44,1.44,0,0,1,1.1.24,53.52,53.52,0,0,0,11.83,3.86,27.68,27.68,0,0,0,4.49.82c1,.15,2-.06,2.86.69l-.05.17-2.35-.14-.75-.09a4,4,0,0,0-1.6-.22l-5.6-1.19-.7-.18c-2.11-.81-4.31-1.39-6.37-2.32-.38-.16-.77-.3-1.15-.45a.35.35,0,0,1-.51-.17,7.14,7.14,0,0,0-2.72-1.19h0C45.43,74,44.85,74.14,45,73.71Z"/>
      <path class="cls-15" d="M67.26,80.12a15.54,15.54,0,0,1-2.88-.44.61.61,0,0,1-.53,0c.25-.72-.56-.08-.59-.45-.21-.38-.88-.46-.7-1.09.16-.13.26,0,.37.08.43-.15.78.11,1.16.2.21.06.41.23.64.19,1.59-.31,3.1.31,4.66.33.84.19,1.76.15,2.43.84.4.28,1,.1,1.29.66a15,15,0,0,1-2.76,0,.79.79,0,0,0-.22-.19,3.89,3.89,0,0,0-.61-.16c.19,0,.38.08.45.3a.33.33,0,0,1-.07.13Z"/>
      <path class="cls-16" d="M75.87,77.64c0,.93.38,1.93-.57,2.64l-.23.13-1.78,0a.24.24,0,0,1,0-.25c.16-.13.3-.24.05-.41a5.24,5.24,0,0,0,1.21-1.36A6,6,0,0,0,75.87,77.64Z"/>
      <path class="cls-17" d="M73.42,79.87c.55.32-.16.36-.13.56l-.18,0-1.51-.33c-.12-.23,0-.38.17-.51A1.39,1.39,0,0,1,73.42,79.87Z"/>
      <path class="cls-18" d="M70,80.31l-1.68-.37.08-.29c.68.16,1.48-.11,2,.71Z"/>
      <path class="cls-19" d="M69.23,79.16A4.33,4.33,0,0,1,67.17,79a4.19,4.19,0,0,0-2.48,0c-.32.12-.51-.16-.67-.41-.41-.36-.76-.74-.49-1.35a3.91,3.91,0,0,0,.66-1.45c.18-.94.68-1.24,1.64-1.14.66.07,1.27.44,2,.22l3.46,1.34a7.49,7.49,0,0,0-2.19,1.2c.52.39,1.33.58,1.14,1.44C70.06,79.48,69.53,79,69.23,79.16Z"/>
      <path class="cls-20" d="M69.23,79.16c.18-.28.82.16.75-.48,0-.46-.36-.62-.78-.72s-.77,0-.74-.55.4-.47.77-.46c.14,0,.38-.09.41-.18.27-1,1-.65,1.61-.53a15.54,15.54,0,0,1,3.53,1,1.17,1.17,0,0,1-.2,1.32,1.87,1.87,0,0,1-1.72.85c-.36,0-.65.24-1,.35l-.27.34C71,79.27,70,79.42,69.23,79.16Z"/>
      <path class="cls-21" d="M67.79,74.9c-.38.44-.82.2-1.25.12-1.45-.29-1.56-.2-2.06,1.18a1.81,1.81,0,0,1-.78,1.16c-.37-.81-.31-1.77-.82-2.54,0-.19.09-.38.13-.57.34-.25.47-.81,1.14-.7-.13.27-.66.37-.44.71s.56.11.85,0a.9.9,0,0,1,.83,0A10.08,10.08,0,0,0,67.79,74.9Z"/>
      <path class="cls-22" d="M74.5,78.53c.07-.45,0-.93.28-1.32.5-.49.77.08,1.12.24l0,.19c0,.84-.58.89-1.19.93C74.6,78.64,74.54,78.63,74.5,78.53Z"/>
      <path class="cls-23" d="M62.36,75.28a1.23,1.23,0,0,1-.36.9,1.48,1.48,0,0,1-.09-1.38.35.35,0,0,1,.14.06A1.75,1.75,0,0,1,62.36,75.28Z"/>
      <path class="cls-24" d="M47.86,74.91a1.59,1.59,0,0,1-.88-.4c0-.27.09-.53.13-.8a1.08,1.08,0,0,1,.24-1.12l.14-.33.15,0c.14-.1.26-.29.44-.06a1.59,1.59,0,0,1-.18.88,1.53,1.53,0,0,0,.18-.89c-.1-.36.12-.65.19-1l.41.39c.39.41.73.33.77-.22.08-1.07.66-1.16,1.53-1,2.55.56,5.12,1.11,7.69,1.62a11.73,11.73,0,0,1,1.42.18c.37.52,1.34.53,1.25,1.44a.85.85,0,0,1-1.07.41A45.1,45.1,0,0,0,55.83,73a7.12,7.12,0,0,0-2.7-.44,9.73,9.73,0,0,0-2-.24c-1.59.09-2,.34-2.39,1.91a1,1,0,0,1-.18.43C48.4,74.85,48,74.5,47.86,74.91Z"/>
      <path class="cls-25" d="M47.86,74.91a1.06,1.06,0,0,1,.14-1c.39.1.07.7.51.75.61-.4,1.16-.11,1.7.15a17.8,17.8,0,0,0,1.68.87c.66.54,1.55.35,2.27.69a16.75,16.75,0,0,0,3.82,1c.39.11.83.11,1.06.53a11.71,11.71,0,0,0,3.16.88c.46-.29.8,0,1.14.25.74.16.74.16.48.49A17.38,17.38,0,0,1,60.94,79a2.84,2.84,0,0,0-1.12-.15A45.55,45.55,0,0,1,50,76C49.26,75.66,48.57,75.26,47.86,74.91Z"/>
      <path class="cls-26" d="M59,77.93c-1.37-.3-2.74-.59-4.1-.9-.34-.07-.71-.06-.94-.39.66-.41,1.36-.15,2-.1s1.18.24,1.78.33c1.19.19,1.48-.09,1.41-1.31a2.18,2.18,0,0,1,0-.57c.25-.68,0-1-.71-1.13-1.48-.28-2.93-.7-4.41-1-.43-.08-.9-.11-1.13-.59a5.6,5.6,0,0,1,2.49.26c1.29.44,2.66.64,4,1,.62.14,1.2.62,1.88.2.1.21.31.38.25.65-.36.18-.22.56-.3.85-.14.47-.28.92-.79,1.12s-.46.91-1,1.14A.63.63,0,0,0,59,77.93Z"/>
      <path class="cls-27" d="M62.88,74.82c.84.51,1.09,1.26.82,2.54-.17.49.3.82.32,1.26a2.09,2.09,0,0,1-1.09-.44A5.36,5.36,0,0,1,62.88,74.82Z"/>
      <path class="cls-24" d="M59.54,77.45a3.18,3.18,0,0,1,1-1.45c.36-.23.35-.64.43-1s0-.75.59-.64A4.41,4.41,0,0,1,61.43,76c-.11.38-.08.81-.77.61C60.13,76.49,60.14,77.46,59.54,77.45Z"/>
      <path class="cls-28" d="M63.34,79.06l-1.14-.25c-.12-.44-1.1-.17-.81-.8s.75.17,1.17.09C62.68,78.53,63.36,78.51,63.34,79.06Z"/>
      <path class="cls-25" d="M48.27,71.24a.85.85,0,0,1-.21,1h0l-.42.1A2,2,0,0,1,48.27,71.24Z"/>
      <path class="cls-29" d="M47.35,72.59l-.24,1.12c-.57-.33-.14-.77-.11-1.17Z"/>
      <path class="cls-30" d="M77.67,80.2a.88.88,0,0,1-.09-1.39c.38-.38,1.29.14,1.8,1-.54.27-1.23-.1-1.7.41Z"/>
      <path class="cls-28" d="M59.82,78.88c1.39-.12,2.66.5,4,.67l.56.13c-1.17.16-2.23-.38-3.35-.54C60.62,79.09,60.22,79,59.82,78.88Z"/>
      <path class="cls-15" d="M74.5,78.53l.18,0c-.34.29-.24.67-.19,1.05-.38.08-.8-.15-1.07.25a6.73,6.73,0,0,0-1.55-.14c.42-.43.8-.89,1.54-.68C73.85,79.17,74.07,78.58,74.5,78.53Z"/>
      <path class="cls-31" d="M53,72.27l5.56,1.21a4.74,4.74,0,0,1,.65.16c.85.3.92.66.28,1.42a1.47,1.47,0,0,1-1.21.12c-.78-.16-1.57-.32-2.34-.53a2,2,0,0,0-2.73,1.1c-.37.61-.89.46-1.41.2-1.17-.22-2-1.3-3.27-1.3-.33-1.21.57-1.9,1.18-2.7.16-.22.48-.1.72,0a2,2,0,0,0,1.4,0C52.37,71.58,52.51,72.36,53,72.27Z"/>
      <path class="cls-25" d="M48.06,72.19c.22.5,0,.91-.37,1.39-.09-.61.4-.94.37-1.39Z"/>
      <path class="cls-32" d="M51.78,76c.62.08,1.25.18,1.18-.79a.57.57,0,0,1,.43-.58c.41-.13.88-.13,1.11-.62.08-.17.36-.12.53,0a26.31,26.31,0,0,0,4.44,1.14c0,.13,0,.25.08.37.41,1.4-.21,2.16-1.61,1.84s-2.63-.39-3.94-.63C53.27,76.38,52.42,76.5,51.78,76Z"/>
    </g>
    <g>
      <path class="cls-33" d="M81.74,29l.13.26-.08.08a.67.67,0,0,1-.63-.06,3.61,3.61,0,0,0-.72-.57c-.09-.05-.16-.13-.25-.18A6.24,6.24,0,0,0,79,27.91c-.37-.14-.69-.36-.49-.85.21-.14.3.11.46.14s.21,0,.25.15l1.59.94c.12.1.31.11.38.28Z"/>
      <path class="cls-34" d="M93.48,42.09l-.21.13a16,16,0,0,1-1-1.5c-.3-.36-.57-.73-.84-1.1s-.67-.48-.1-.82c.11,0,.21,0,.22.17l.09.13a8.34,8.34,0,0,1,1.77,2.44Z"/>
      <path class="cls-35" d="M83.91,30.58a4,4,0,0,0,.91.79c.13.14.26.28.06.47-.71-.1-1-.79-1.51-1.13a.48.48,0,0,1,0-.33l.07-.08Z"/>
      <path class="cls-35" d="M81.87,29.21A3.06,3.06,0,0,1,83.4,30.3l-.05,0a.45.45,0,0,1-.41,0,6.45,6.45,0,0,1-1-.75.32.32,0,0,1-.14-.36Z"/>
      <path class="cls-36" d="M93.09,42.36l-.29.1c-.27.11-.58.1-.81.29h0a2.81,2.81,0,0,1-1.11.17,10.16,10.16,0,0,0-2.26-.87,1.37,1.37,0,0,1-.78-.38c-.23-.2-.4-.44-.06-.71a3,3,0,0,1,1.48.22,4.3,4.3,0,0,0,2.25,0c.21.08.51.39.48-.18.07-.23.17-.41.44-.43a3,3,0,0,1,.83,1.63Z"/>
      <path class="cls-37" d="M77.34,26.5c.2.2.55.16.72.41a.84.84,0,0,1-1,0A5.37,5.37,0,0,0,76,26.53a2.85,2.85,0,0,1-.5-.14,9.63,9.63,0,0,0-2.18-.59l-.62-.13c-.33-.1-.69-.09-1-.21-1-.15-2-.37-3-.59-.21,0-.44,0-.6-.21a.17.17,0,0,1,0-.24c.7-.12,1.34.29,2,.25a12,12,0,0,0,2.58.49,5.77,5.77,0,0,0,1.68.43Z"/>
      <path class="cls-38" d="M68,24.42l0,.15c-.35.31-.76,0-1.13.09a3.73,3.73,0,0,1-.67-.09c-.5.06-1-.16-1.47-.07a10.59,10.59,0,0,0-1.38,0h-.21a9.58,9.58,0,0,0-1.07.05,1.32,1.32,0,0,1-.33-.08.41.41,0,0,1-.22-.26l.55-.12c.17-.23.37-.12.57-.06a22.5,22.5,0,0,0,3,0,5.9,5.9,0,0,1,.94,0,5.06,5.06,0,0,1,.93.23Z"/>
      <path class="cls-39" d="M61.52,24.19l.32.12c.1.09.16.2,0,.3a3.36,3.36,0,0,1-2.12.24.58.58,0,0,1-.23-.26.24.24,0,0,1,0-.22l1-.2a.37.37,0,0,1,.26-.15,1.1,1.1,0,0,1,.59.1Z"/>
      <path class="cls-40" d="M67.47,24.28l-1-.15a.61.61,0,0,1-.56-.16A2.24,2.24,0,0,1,67.47,24.28Z"/>
      <path class="cls-41" d="M44.92,31c.3-.51.93-.62,1.28-1.06.2-.13.29-.4.55-.47l0,0c.23.08.18.27.17.44-.1.42-.44.74-.47,1.19,0,.16.13.31.16.47a.5.5,0,0,1-.41.64.52.52,0,0,1-.67-.35c-.11-.27,0-.75-.57-.68C44.91,31.17,44.83,31.11,44.92,31Z"/>
      <path class="cls-42" d="M44.92,31l.12.18a7.57,7.57,0,0,1,.77,1.43l-.07.07-.76-.5a.18.18,0,0,1-.09-.15l-.19-.68C44.8,31.24,44.75,31,44.92,31Z"/>
      <path class="cls-43" d="M51.15,33.84l-.64.16a6.25,6.25,0,0,1-2.94-.34c-.44-.18-1,0-1.32-.57l-.51-.42,0,0a1,1,0,0,1,1.18.07c.13.13.16.19.35.21,1,.08,1.95.49,3,.54C50.61,33.47,51,33.47,51.15,33.84Z"/>
      <path class="cls-44" d="M83,30.21l.39.13.12.28c0,.19.2.34.2.54a.62.62,0,0,0,.28.62A1.75,1.75,0,0,1,84.47,34c-.23.8-.36,1.63-.56,2.45-.06.26-.07.59-.44.65-.34-.16-.34-.46-.26-.75.23-.76.21-1.57.49-2.33a1,1,0,0,0-.47-1.29c-.31-.18-.57-.44-.89-.6A2.29,2.29,0,0,1,81,30.15c-.09-.67-.79-.92-1-1.48,0-.33.25-.3.45-.34l.12.17c.14.26.52.26.61.57l.68.17.27.2C82.21,29.9,82.41,30.25,83,30.21Z"/>
      <path class="cls-45" d="M80.4,28.33c-.13.11-.33.15-.37.35-.57.27-1-.09-1.39-.36a1.51,1.51,0,0,1-.37-.65c.15-.18-.26-.52.18-.61l.14.07c0,.31.17.56.53.58C79.64,27.73,80,28.11,80.4,28.33Z"/>
      <path class="cls-45" d="M81.13,29.07c-.19-.2-.55-.23-.61-.57C80.76,28.65,81.12,28.68,81.13,29.07Z"/>
      <path class="cls-46" d="M75.94,26.32l2.12.59a.14.14,0,0,1,.11.05c-.21.48-.63.16-1,.24a2.27,2.27,0,0,1-.84-.13c-.33-.13-.74,0-1-.27C75.27,26.31,75.71,26.44,75.94,26.32Z"/>
      <path class="cls-47" d="M76.28,26.83a5.23,5.23,0,0,0,1.89.13l.28.1-.11.51c-.54.32-1-.3-1.45-.21C76.59,27.29,76.25,27.27,76.28,26.83Z"/>
      <path class="cls-48" d="M83.52,31.08l0-.46c.6.24.88.92,1.52,1.1.21-.09.29.11.41.21a.53.53,0,0,0,0,.13,2.49,2.49,0,0,0,.62.59h0c.22.27.5.48.71.77l.23.07c.37.33.77.61,1.12,1a4.77,4.77,0,0,0,.71.78c.1.13.19.26.3.39.66.94,1.48,1.78,2,2.79l.21.45c-.29.39.26.43.29.68s-.14.46-.38.22A2.1,2.1,0,0,1,90.7,39c0,.38.69.55.4,1-.15.24-.43,0-.64-.07a1.94,1.94,0,0,1-.65-.9,1.07,1.07,0,0,0-.4-.62,5.48,5.48,0,0,0-.76-1c-.39-.42-1.15-.6-.92-1.42a2.26,2.26,0,0,0-1.16-1.53,2.59,2.59,0,0,0-1.4-.49,5.69,5.69,0,0,0-.51,1.93c-.12.46-.12,1-.67,1.18a.25.25,0,0,1-.18-.11,20.5,20.5,0,0,1,.62-3.1,3.36,3.36,0,0,0,.09-.7c0-.56,0-1-.7-1.21C83.49,31.81,83.55,31.38,83.52,31.08Z"/>
      <path class="cls-49" d="M86.72,33.41a1.29,1.29,0,0,1-.71-.77A1.38,1.38,0,0,1,86.72,33.41Z"/>
      <path class="cls-49" d="M86,32.65a.66.66,0,0,1-.62-.59A1.23,1.23,0,0,1,86,32.65Z"/>
      <path class="cls-50" d="M55.91,24.91l.58,0a.19.19,0,0,1,0,.19,6.93,6.93,0,0,1-2,.73,1.93,1.93,0,0,1-.62.23,6.16,6.16,0,0,0-2.15,1.09,1.37,1.37,0,0,1-1.39.37.34.34,0,0,1-.11-.18c.06-.48.52-.44.8-.62l.18-.1a7.13,7.13,0,0,1,1.51-.7h0a2.22,2.22,0,0,1,1-.52l.1,0H54c.62-.09,1.14-.52,1.79-.48A.14.14,0,0,0,55.91,24.91Z"/>
      <path class="cls-51" d="M90.55,39.73c.16,0,.3.26.44.14s0-.29-.15-.4a1.92,1.92,0,0,1-.47-1c.18.16.68-.22.57.49a.5.5,0,0,0,.69.53l.81,1.07a1,1,0,0,0-.27.54c-.14.12-.27.26-.48.19a3.38,3.38,0,0,1-2.63,0l-1.33-.29a.71.71,0,0,1-.73.05.51.51,0,0,1-.28-.24c.13-.43.48-.31.77-.27.66.09,1.31.28,2,.4.89.17,1,.1.92-.79a.86.86,0,0,1,0-.28A.4.4,0,0,1,90.55,39.73Z"/>
      <path class="cls-52" d="M83,30.21c.05.16.32.31.11.49s-.28-.1-.39-.2c-.29-.29-1-.39-.6-1.06A3.84,3.84,0,0,1,83,30.21Z"/>
      <path class="cls-53" d="M87,40.9l.7.15c.17.77.88.84,1.39.85.79,0,1.2.61,1.8.88A.22.22,0,0,1,91,43a.14.14,0,0,1-.14.09h0a5.7,5.7,0,0,1-4.09-.54.46.46,0,0,1-.14-.22l-.42-.34a.48.48,0,0,1,0-.2A2.24,2.24,0,0,1,87,40.9Z"/>
      <path class="cls-54" d="M81.67,42.1l0,0-.05,0a5.61,5.61,0,0,1-1.87.17h-.26c-1.31-.24-2.61-.56-3.91-.83l-1-.23a4.19,4.19,0,0,1-1.07-.4c-.18-.07-.35-.17-.26-.42a2.87,2.87,0,0,1,2.15.25c.85.28,1.72.42,2.58.65.51.14.93-.17,1.4-.19.76.18,1.58-.14,2.33.27.16.09.34-.14.53-.18s.55-.09.52.34c-.11.22-.37.29-.53.46S81.83,42.05,81.67,42.1Z"/>
      <path class="cls-54" d="M86.24,41.77l0,.16a3.1,3.1,0,0,1-1.35-1.13c-.16-.19-.28-.41-.57-.2s-.25.51-.61.32c-.38-.74.3-.68.66-.86a.74.74,0,0,1,.62.19,17,17,0,0,0,1.21,1.34Z"/>
      <path class="cls-55" d="M83.75,40.92l.53-.32c-.39.74-1.14,1-1.81,1.33-.13.18-.27.07-.41,0,0-.29.3-.32.51-.38C82.94,41.31,83.24,40.91,83.75,40.92Z"/>
      <path class="cls-56" d="M90.89,42.93l0-.15a2.08,2.08,0,0,1,1.08,0c-.11.11-.3.13-.33.32C91.43,42.93,91.12,43.2,90.89,42.93Z"/>
      <path class="cls-56" d="M92,42.75a.76.76,0,0,1,.81-.29A1.22,1.22,0,0,1,92,42.75Z"/>
      <path class="cls-57" d="M91.69,41.32a.45.45,0,0,1,.48-.19.92.92,0,0,1,0,.28c0,.26-.15.52-.43.46S91.68,41.52,91.69,41.32Z"/>
      <path class="cls-39" d="M57.31,24.69l1.35-.22a.29.29,0,0,1,.3,0,.23.23,0,0,1,0,.2c-.16.17-.39.15-.58.21a2.56,2.56,0,0,1-.73.09C57.48,25,57.29,24.94,57.31,24.69Z"/>
      <path class="cls-58" d="M57.31,24.69l.38.18c0,.38-.3.37-.59.32a.59.59,0,0,1-.38-.39.5.5,0,0,1,0-.12c0-.06.07-.06.1,0Z"/>
      <path class="cls-59" d="M59,24.56l-.29-.09a1,1,0,0,1,.9-.1v.15l-.07.07a.54.54,0,0,1-.37.08A.31.31,0,0,1,59,24.56Z"/>
      <path class="cls-60" d="M56.72,24.8c.14,0,.28.07.35.23a.34.34,0,0,1-.46.16.29.29,0,0,1-.14-.15l0-.16Z"/>
      <path class="cls-61" d="M60.14,23.92c.2.15.57-.13.67.26h-.26C60.4,24.1,60.22,24.1,60.14,23.92Z"/>
      <path class="cls-62" d="M66.83,24.46c.41-.15.78.1,1.17.11a27.62,27.62,0,0,1,3.72.67c.15.55-.52.36-.61.69s-.19.46-.23.72a1.06,1.06,0,0,1-.62,1,4.76,4.76,0,0,1-1.91-.3c-.69-.19-.83-.57-.53-1.21.1-.22.28-.4.26-.66s-.3-.5-.6-.59S66.94,24.78,66.83,24.46Z"/>
      <path class="cls-63" d="M75.94,26.32c-.13.21-.48.18-.55.46A4.73,4.73,0,0,1,73,26.49c-.25-.07-.35.08-.43.28a3.28,3.28,0,0,0-.66,1.77c-.16,1.18-.47,2.34-.74,3.51-.07.29-.14.63-.53.69-.38-.32-.3-.74-.23-1.14.15-.85.36-1.7.54-2.54a2.07,2.07,0,0,0,0-1.41.68.68,0,0,1,.28-.83,6.75,6.75,0,0,0,.71-.81c.69-.37,1.32.08,1.93.07-.51-.21-1.24,0-1.78-.49.26-.26.49,0,.68-.13l.57.13c.71.36,1.54.27,2.24.63Z"/>
      <path class="cls-46" d="M72.71,25.46l-.52.15,2,.43c-.74.09-1.45-.07-2.17,0a.67.67,0,0,1-1-.22c0-.51.62-.22.72-.59Z"/>
      <path class="cls-46" d="M75.52,26.22a8,8,0,0,1-2.24-.63A8,8,0,0,1,75.52,26.22Z"/>
      <path class="cls-64" d="M56.61,25.08l.46,0a.53.53,0,0,0,.62-.16l.63-.16c.2.06.41.23.6,0l0-.13a.32.32,0,0,1,.14,0c.15,0,.32.1.46-.05h0a1.16,1.16,0,0,0,1.4.05c.3-.23.74.27.89-.26l.27,0a1.19,1.19,0,0,0,1,.08c.09,0,.18.07.27,0a.26.26,0,0,1-.11-.16,4.09,4.09,0,0,1,1.48,0l.1,0c.52.18,1.16.06,1.57.6.11.15.31.06.48,0s.39-.08.48.17a2.29,2.29,0,0,1-2.26,1.63,12.21,12.21,0,0,1-1.46-.23,25.31,25.31,0,0,1,3.84.92c1,.19,1.11.36,1,1.38-.06.58.34.74.7,1,.18.11.44,0,.6.23a4.85,4.85,0,0,1-.4,2.68,1.81,1.81,0,0,0-.77,1.16,1.25,1.25,0,0,1-.41.66c-.58.61-1.19,1.19-1.81,1.75a1.6,1.6,0,0,1-1.18.43c-.71,0-1.29.44-2,.5a3.51,3.51,0,0,1-2.58-.6,1.43,1.43,0,0,0-.59-.23A19.71,19.71,0,0,1,58,35.85a2.69,2.69,0,0,1-1.05-1c-.12-.26-.38-.35-.61-.48a1.88,1.88,0,0,1-1-2.1c0-.23.14-.47.35-.52.67-.14,1.06-.83,1.8-.86.33,0,.64-.85.56-1.3s-.48-.48-.79-.45c-.9.11-1.55,0-1.58-1.13,0-.11-.19-.14-.27-.22a.46.46,0,0,1-.13-.18c-.13-.31,0-.59.08-.88C55.5,26,56.16,25.61,56.61,25.08Z"/>
      <path class="cls-64" d="M66.83,24.46a4,4,0,0,1,1.34.46c.11.08.28.14.13.32a.63.63,0,0,1-.79,0c-.12-.2-.25-.37-.54-.33a1,1,0,0,1-.73-.15c-.12-.11-.2-.23-.11-.39Z"/>
      <path class="cls-65" d="M63.31,24.3c.28.1.61.06.88.3-.39.41-.73,0-1.09,0-.12.05-.25.05-.26-.11s.23-.09.33-.18Z"/>
      <path class="cls-39" d="M63.17,24.27c0,.11-.42.11-.07.29-.41.34-.74.26-1-.21A2.71,2.71,0,0,1,63.17,24.27Z"/>
      <path class="cls-62" d="M66.13,24.35l.08.29a3.09,3.09,0,0,1-1.41-.31h0A5,5,0,0,1,66.13,24.35Z"/>
      <path class="cls-66" d="M50.3,27.41c.45-.11,1-.08,1.3-.46.41-.14.52.09.52.43S52,27.79,52,28c-.13.51-.72.41-1,.75a15.41,15.41,0,0,1-3.65,2.57c.11.24.29.15.43.14a1.33,1.33,0,0,1,.85.13c1,.81,2,.39,3.07.22a1,1,0,0,1,1,.28l.13.14c.09.12.25.13.39.18a.35.35,0,0,1,.14.13.44.44,0,0,1-.19.61.7.7,0,0,1-.19.06c-.39-.07-.65.19-.93.38a.69.69,0,0,1-.2,0,1.47,1.47,0,0,0-.69-.14,10.51,10.51,0,0,1-4.24-.9c-.29-.15-.45-.25-.32-.58s-.06-.64-.32-.88c0-.51.4-.79.56-1.21.34-.11.19-.47.37-.67a1.78,1.78,0,0,1,1-.65l.3-.26.62-.28a5.44,5.44,0,0,0,1.13-.63Z"/>
      <path class="cls-67" d="M49.09,28.18c-.21.06-.39.24-.63.16.1-.27.42-.22.57-.42.46-.17.79-.59,1.29-.68l0,.17h0A3.67,3.67,0,0,1,49.09,28.18Z"/>
      <path class="cls-68" d="M47.22,29.31c0,.3.2.74-.43.61V29.5l.29-.26C47.19,29.17,47.23,29.19,47.22,29.31Z"/>
      <path class="cls-69" d="M46.23,31.13a.51.51,0,0,1,.43.7c-.12.5.15.58.54.72a14,14,0,0,0,3.85.68,2,2,0,0,1,.35.07c.11.08.19.17.14.32s-.28.12-.4.23h0a23,23,0,0,1-3.6-.66c-.21,0-.66.16-.63-.39,0-.15-.18-.07-.29,0a1.39,1.39,0,0,1-.85-.11c-.27-.48-1-.75-.74-1.47.13-.16.38-.43.41-.05s.82.34.32.84c0,0,.21.16.36.13s.42-.1.36-.36A3.51,3.51,0,0,0,46.23,31.13Z"/>
      <path class="cls-70" d="M54.73,35.79A7.7,7.7,0,0,1,53.34,34a.13.13,0,0,1,0-.18c.31-.08.51.12.68.32.5.59,1,1.21,1.42,1.84a.2.2,0,0,1-.12.16C55,36.23,54.9,36,54.73,35.79Z"/>
      <path class="cls-71" d="M51.14,33.85a.52.52,0,0,1,.34-.24.35.35,0,0,1,.32-.08l.14,0A2.11,2.11,0,0,1,53,33l.14,0a.36.36,0,0,1,.32,0,.44.44,0,0,1,.09.61.23.23,0,0,1-.17.1c-.24,0-.3-.27-.48-.36A3.9,3.9,0,0,1,51.14,33.85Z"/>
      <path class="cls-64" d="M72.84,26.23c.78.08,1.5.52,2.32.31,0,0,.15.16.23.24.29.23.61-.38.89,0,.15.26.44.22.68.3s.57,0,.54.42a.83.83,0,0,0-.28.83.49.49,0,0,1-.34.58c-.22.08-.49.07-.59-.12-.39-.73-.86-.41-1.39-.14a1.25,1.25,0,0,0,.89.55c1.49.38,3,.66,4.51,1,.4.09.64-.14.93-.27a2.47,2.47,0,0,0,1.53,2c.49.28,1.31.47,1.31,1.34a2.11,2.11,0,0,1-.09.7A12.75,12.75,0,0,0,83.42,37a4.43,4.43,0,0,1-.83,2.64,3.72,3.72,0,0,1-3,.9.84.84,0,0,0-.6.16,12.55,12.55,0,0,1-4-.53c-.86-.28-1.55-.94-2.44-1.18a.6.6,0,0,1-.35-.44,11.76,11.76,0,0,1,0-2.14c0-.12,0-.3-.09-.33-.68-.18-.8-.9-1.28-1.27a1.79,1.79,0,0,1-.3-2l.1,0a.57.57,0,0,0,.24-.42,27,27,0,0,0,.85-4.72.45.45,0,0,1,.3-.44.9.9,0,0,0,.43-.71C72.49,26.3,72.71,26.37,72.84,26.23Z"/>
      <path class="cls-72" d="M81.23,30c0,.57-.32.69-.87.56-1.48-.36-3-.65-4.45-1a6.79,6.79,0,0,1-1.14-.42c-.28-.13-.25-.38-.19-.63s.2-.35.46-.21.35,0,.5-.17c.35-.39.65-.46.71.2,0,.25.09.42.34.48a.38.38,0,0,0,.4-.12c.17-.23,0-.37-.12-.56-.28-.63.23-.55.59-.6s.83.33,1.21.56a5,5,0,0,0,1.36.59A2.16,2.16,0,0,1,81.23,30Z"/>
      <path class="cls-73" d="M82.41,39.6c.68-.74.51-1.8,1-2.61a.88.88,0,0,0,.3-.71c.14-1.18.74-2.28.63-3.51a.83.83,0,0,0-.46-.74c-.37-.19-.73-.45-.37-1,.1.14.52.13.19.5-.09.09.21.33.44.37.45.08.54.32.52.76A35.58,35.58,0,0,1,83.88,37a14.52,14.52,0,0,1-.81,2.41A.47.47,0,0,1,82.41,39.6Z"/>
      <path class="cls-46" d="M78.67,28.09c-.48,0-.81-.37-1.21-.56l-.5-.4c.5,0,.9.35,1.38.44Z"/>
      <path class="cls-74" d="M88,35.9a.67.67,0,0,0,.4.92c.21.09.44.2.49.47-.23.4-.09,1-.6,1.27a.6.6,0,0,1-.64-.37c-.18-.72-.77-.75-1.31-.89A5.9,5.9,0,0,1,85,37.11a2.13,2.13,0,0,1,.49-2.6,1.35,1.35,0,0,1,.8-.27c.28,0,.45,0,.6.32C87.14,35.08,87.65,35.42,88,35.9Z"/>
      <path class="cls-75" d="M82.41,39.6a.94.94,0,0,0,.74-.87A2.72,2.72,0,0,1,83.88,37L84,37a4.65,4.65,0,0,1-1.22,3c-.12.07-.27.1-.38.18s-.37.09-.29.34.26.17.43.17.37,0,.37-.27a.7.7,0,0,1,.4-.5c.39,0,.78-.11,1,.3-.08.35-.92.09-.61.75a1.88,1.88,0,0,1-1.18.64.42.42,0,0,0-.67,0c-.11.11-.14.24-.31.12-.63-.48-1.4-.16-2.09-.36,0-.39-.52-.48-.55-.86a.53.53,0,0,1,.59-.17A4.36,4.36,0,0,0,82.41,39.6Z"/>
      <path class="cls-76" d="M83.37,40l-.27.54c-.18.09-.4.13-.51.33-.17,0-.34.11-.49,0s-.49-.12-.52-.35.29-.38.5-.44a1.67,1.67,0,0,0,1.32-1.61c0-.56.57-.89.62-1.44a8.43,8.43,0,0,0,.7-3c0-.22,0-.49.28-.51s.16.23.15.38a.63.63,0,0,1,.14.68,8.07,8.07,0,0,0-.35,2.33,16.56,16.56,0,0,1-.87,2.48A1,1,0,0,1,83.37,40Z"/>
      <path class="cls-62" d="M88.29,38.5a5.85,5.85,0,0,0,.14-.92c0-.34.18-.35.42-.29a1.41,1.41,0,0,1,.67,1c.15.19.32.36.47.55a2.25,2.25,0,0,0,.56.86l0,.14a3.06,3.06,0,0,1-2.25-.55C88.05,39.05,88,38.76,88.29,38.5Z"/>
      <path class="cls-77" d="M84.79,36.85l.36-3c.24-.21.48-.6.68,0a.26.26,0,0,0,.23.14c1-.06,1.14,1,1.81,1.38.19.11.13.35.09.53-.65-.17-.88-.77-1.17-1.26-.14-.24-.17-.29-.44-.23a1.38,1.38,0,0,0-1.24,1.49c0,.39,0,.77-.07,1.15a1.66,1.66,0,0,1-.46,1.67c-.37,0-.25-.24-.21-.45A14.4,14.4,0,0,0,84.79,36.85Z"/>
      <path class="cls-51" d="M90,38.87c-.25-.11-.49-.22-.47-.55C89.85,38.35,89.94,38.59,90,38.87Z"/>
      <path class="cls-78" d="M53.39,33.88a.33.33,0,0,1,0-.14,1,1,0,0,0,0-.6c-.1-.21,0-.46-.16-.64h0c-.13-.3-.44.21-.56-.12h0a13.14,13.14,0,0,1,.44-3.06,4.52,4.52,0,0,0,.69-1.7,1.23,1.23,0,0,0-.22-1.13c-.08-.34.12-.51.37-.66.23.1.26-.3.49-.2.75-.09.76.65,1.12,1l-.21,1c.16.26,0,.5,0,.76A4.81,4.81,0,0,0,55,30.7c.11.75,0,1.52.06,2.29a2.12,2.12,0,0,0,1.38,1.94,9.31,9.31,0,0,1,1.43.67l2.41.52a2.65,2.65,0,0,1,.63.57c.18.21.21.43-.09.58a1.42,1.42,0,0,1-.71-.08,13.71,13.71,0,0,0-3.86-.77.85.85,0,0,1-.83-.46c-.9-.33-1.08-1.33-1.76-1.87A2.92,2.92,0,0,0,53.39,33.88Z"/>
      <path class="cls-79" d="M53.92,25.83l-.29.67c0,.08,0,.17,0,.22A4.44,4.44,0,0,1,51.81,28c-.15-.2,0-.35.06-.52s.07-.5-.27-.57A5.29,5.29,0,0,1,53.92,25.83Z"/>
      <path class="cls-80" d="M55.53,26.62c-.2.1-.54.32-.5-.09s-.3-.68-.62-.9A9.16,9.16,0,0,1,56.47,25l.14,0c.07.42-.25.63-.51.85A1.81,1.81,0,0,0,55.53,26.62Z"/>
      <path class="cls-81" d="M84.53,38.72A9.75,9.75,0,0,1,85,37.05a4.5,4.5,0,0,1,2.46.26.26.26,0,0,1,.22.32c-.13.51.27.65.57.87-.13.55.11.79.64.89s1.06.32,1.58.48a3.93,3.93,0,0,1,.2.54c.17.7-.18,1.08-.89.94s-1.54-.33-2.31-.49c-.26-.06-.51-.18-.77,0-.56-.18-.91-.66-1.41-.94-.15-.19-.39-.23-.6-.34S84.17,39.1,84.53,38.72Z"/>
      <path class="cls-36" d="M85.48,39.82a1.86,1.86,0,0,1,1.26,1l.29.07c-.18.37-.31.78-.79.87l-.14,0c-.32-.43-.58-.9-.93-1.31A1.84,1.84,0,0,0,85,40.2c-.2-.21-.72-.38-.46-.67S85.25,39.42,85.48,39.82Z"/>
      <path class="cls-78" d="M70.54,38.8a5.45,5.45,0,0,1-1.21-3.35c0-.14.08-.36-.12-.43s-.28.12-.34.27-.17.22-.23.35a8.52,8.52,0,0,1-.71,1,4.22,4.22,0,0,1-1.77,1.21c-.16.22-.41.12-.61.18s-.51.09-.73-.11c-.16-.39.14-.44.4-.5a1.62,1.62,0,0,0,1-.57c0-.24,0-.51.14-.73.56-.58,1.12-1.17,1.69-1.74a1.22,1.22,0,0,0,.45-1c0-.42.37-.51.67-.65s.57-.19.65.26c-.06.26-.09.47.21.67a.86.86,0,0,1,.38,1.17c-.12.29,0,.69-.12.92-.28.51.18.19.26.28a.51.51,0,0,1,.3.29,6.14,6.14,0,0,0,1.39,2.13.43.43,0,0,0,.25.33c1.81.67,3.48,1.83,5.54,1.59.33,0,.57.28.89.13a1.69,1.69,0,0,0,.44.23c.61.12.42.36.11.63-1.55.59-3-.06-4.4-.5-.64-.19-1.31-.28-2-.42-.61.17-1-.22-1.45-.53a1.88,1.88,0,0,0-.39-.29c-.2-.13-.35-.33-.56-.46A.39.39,0,0,1,70.54,38.8Z"/>
      <path class="cls-82" d="M85.48,39.82a1,1,0,0,0-.91-.24c.25.32.74.37.79.81a.32.32,0,0,1-.46,0,1,1,0,0,0-.54-.27c-.31-.13-.69,0-1-.22a16.08,16.08,0,0,0,1.42-3.1c.22.34-.12.56-.17.84s-.27.67-.09,1c-.11.41.07.62.47.7C85.22,39.46,85.48,39.49,85.48,39.82Z"/>
      <path class="cls-53" d="M84.9,40.44l.46,0c.56.27.53.87.74,1.34A3.54,3.54,0,0,1,84.9,40.44Z"/>
      <path class="cls-83" d="M58.92,24.69c.31.29.06.34-.17.35s-.33-.16-.43-.33A1,1,0,0,1,58.92,24.69Z"/>
      <path class="cls-39" d="M59.55,24.52c-.12.34-.29.18-.46.05A.54.54,0,0,1,59.55,24.52Z"/>
      <path class="cls-84" d="M67.45,25.06l.85.18c.08.34.24.63-.2.92s-.29.74.21.86c.68.17,1.36.3,2,.45A2.83,2.83,0,0,1,69.79,30c-.63.53-.93-.19-1.36-.37s-.23-.48-.18-.77c.18-.94.19-1-.78-1.13-1.49-.22-2.73-1.18-4.24-1.34.68.09,1.36.15,2,.26.46.07.83,0,.91-.52a.43.43,0,0,1,.49-.42c.49,0,.59-.32.64-.7C67.37,25,67.42,25,67.45,25.06Z"/>
      <path class="cls-85" d="M69.79,30c.18-.85.37-1.7.55-2.55a1.68,1.68,0,0,0,.27-1.36c-.1-.35.16-.32.39-.28l1,.22a1.15,1.15,0,0,1-.64,1c-.3.16-.52.38-.11.7s.11.54.06.81a28.42,28.42,0,0,0-.76,4.18h0c-.08.06-.09.15-.13.24s0,.46-.3.47-.31-.24-.37-.44-.33-.23-.54-.27c.48-.51.15-1.21.38-1.78A5.71,5.71,0,0,0,69.79,30Z"/>
      <path class="cls-62" d="M72.84,26.23c0,.48-.31.16-.49.19C72.44,26.17,72.64,26.18,72.84,26.23Z"/>
      <path class="cls-86" d="M55.46,27.65c.38-.06.5.12.49.49,0,.65.22.85.85.75a1.59,1.59,0,0,1,.2-.07c1-.17,1.4.24,1.2,1.22-.12.63-.18,1.3-1.12,1.11a.33.33,0,0,0-.26.09c-.28.41-.58.75-1.15.65,0,0-.12.24-.18.37-.5.13-.69-.14-.6-.57a3.32,3.32,0,0,0-.11-1.47,3.48,3.48,0,0,1,.33-1.81A2.28,2.28,0,0,1,55.46,27.65Z"/>
      <path class="cls-87" d="M66.39,36.11l.12.77A.68.68,0,0,1,66,37a1.16,1.16,0,0,0-1.51,1,4,4,0,0,1-1.85,0c-1.68-.34-3.35-.71-5-1.09-.27-.06-.59-.07-.76-.52a5.16,5.16,0,0,1,2.09.33,8.31,8.31,0,0,0,2,.4c0-.46-.45-.69-.67-1,.5.12.79.6,1.3.74a4.48,4.48,0,0,0,2.71-.15,2,2,0,0,1,1-.21C65.73,36.57,66,36.28,66.39,36.11Z"/>
      <path class="cls-88" d="M55.46,27.65c-.13.35-.28.71-.38,1.07a2.74,2.74,0,0,0,0,2,1.16,1.16,0,0,1,0,.84.48.48,0,0,0,.44.67,1.67,1.67,0,0,0,1.14,1.93c.31.13.58.27.59.71s.54.36.66.7A8.22,8.22,0,0,1,56,35a2.64,2.64,0,0,1-1.18-1.87,27.07,27.07,0,0,0-.07-3,3.75,3.75,0,0,1,.39-2c.07-.2.15-.4.23-.61Z"/>
      <path class="cls-89" d="M67.45,25.06l-.14,0c-.5.36-.91.57-1.31-.21-.19-.36-.88-.1-1.2-.49l1.41.31C66.65,24.71,67.22,24.39,67.45,25.06Z"/>
      <path class="cls-31" d="M53.32,29.26c-.26,1-.11,2.15-.68,3.12a.76.76,0,0,0-1.06-.28c-.68.36-1.47,0-2.17.29-.09,0-.33,0-.39-.14a1.18,1.18,0,0,0-1.51-.47.45.45,0,0,1-.61-.35c-.07-.27.17-.36.39-.43a11.25,11.25,0,0,0,3.51-2.44,6.26,6.26,0,0,0,2.44-1.23c.19-.16.39-.33.63-.19s0,.35,0,.53A3.81,3.81,0,0,1,53.32,29.26Z"/>
      <path class="cls-90" d="M53.32,29.26a8.66,8.66,0,0,0,.49-1.57c0-.15.17-.35-.08-.43s-.26.09-.32.24a.83.83,0,0,1-.94.6,1.14,1.14,0,0,0-.78.33.92.92,0,0,1-.89.13c.25-.34.76-.18,1-.52a11.68,11.68,0,0,1,1.82-1.54c.26-.07.55,0,.48.3A4.29,4.29,0,0,1,53.32,29.26Z"/>
      <path class="cls-91" d="M52.65,32.38c.46,0,.28-.5.58-.67.2.27,0,.54,0,.79C53,32.48,52.73,32.93,52.65,32.38Z"/>
      <path class="cls-91" d="M53,33a2.21,2.21,0,0,1-1,.51A.79.79,0,0,1,53,33Z"/>
      <path class="cls-50" d="M49.09,28.18a5.08,5.08,0,0,1,1.21-.77A1.45,1.45,0,0,1,49.09,28.18Z"/>
      <path class="cls-91" d="M53.21,32.5c.34.14.2.4.16.63l-.28-.07C53.26,32.91,53.18,32.69,53.21,32.5Z"/>
      <path class="cls-43" d="M51.8,33.53l-.32.08-.08-.31C51.62,33.24,51.76,33.3,51.8,33.53Z"/>
      <path class="cls-92" d="M72.27,38.43C71.1,38.11,71,37,70.54,36.12a.94.94,0,0,1,.31-1.41c.16,0,.43-.1.44.09,0,.63.34.87.91,1,.25,0,.26.31.22.54-.08.51-.32,1,.06,1.52C72.6,38,72.32,38.22,72.27,38.43Z"/>
      <path class="cls-93" d="M70.85,34.71a3.45,3.45,0,0,0-.31,1.41c-.15,0-.51.27-.41-.25s-.17-1,.24-1.51c.18-.22-.28-.44-.5-.58-.38-.24-.57-.46-.13-.8.49.57.58,0,.8-.27A2.6,2.6,0,0,0,70.85,34.71Z"/>
      <path class="cls-54" d="M82.59,40.82c0-.19-.29-.4-.06-.58s.34.24.57.25c-.07.21.28.41.07.57S82.82,40.81,82.59,40.82Z"/>
      <path class="cls-91" d="M53.78,33.23s-.05-.11,0-.17.09-.17.19-.1,0,.12,0,.19S53.9,33.28,53.78,33.23Z"/>
      <path class="cls-94" d="M68.59,35.55c.07-.1.13-.2.19-.3s.2-.71.56-.56.06.5,0,.76c-.39-.77-.36.2-.59.14C68.67,35.67,68.62,35.65,68.59,35.55Z"/>
      <path class="cls-95" d="M68.59,35.55l.15,0a2,2,0,0,1-.81,1C68,36.18,68.39,35.93,68.59,35.55Z"/>
      <path class="cls-96" d="M64.82,37.85l-.28-.06c0-.95,0-1,1-1a4.06,4.06,0,0,1,1,.11,1.4,1.4,0,0,1-1.28.76C65,37.63,64.89,37.66,64.82,37.85Z"/>
    </g>
    <path class="cls-97" d="M101.88,41C96.52,13.85,83.46,15.36,83.46,15.36l-9.85.28s-2.94-.36-10.37-4C52,6.51,41.51,16.54,32.16,30.49,31.16,33.23,24.44,41,24.44,41l1.73,18.35s0,26.41,29.24,33.32,40-18.54,40-18.54,5.67-10.12,9.74-15.69A41.31,41.31,0,0,1,101.88,41Zm-15,30.08s-8,12.17-27.64,8.31S34.31,60.7,34.31,60.7s-.6-13.43-5.77-19c0,0,9.4-2.35,15.58-9.19,5-5.55,32.39-19.93,48.68,10.59,3,10.68,8.23,14.58,8.23,14.58Z"/>
  </g>
</svg>
